<?xml version="1.0" encoding="utf-8" standalone="no"?>
<!DOCTYPE svg PUBLIC "-//W3C//DTD SVG 1.1//EN"
  "http://www.w3.org/Graphics/SVG/1.1/DTD/svg11.dtd">
<svg xmlns:xlink="http://www.w3.org/1999/xlink" width="236.528pt" height="183.01625pt" viewBox="0 0 236.528 183.01625" xmlns="http://www.w3.org/2000/svg" version="1.1">
 <metadata>
  <rdf:RDF xmlns:dc="http://purl.org/dc/elements/1.1/" xmlns:cc="http://creativecommons.org/ns#" xmlns:rdf="http://www.w3.org/1999/02/22-rdf-syntax-ns#">
   <cc:Work>
    <dc:type rdf:resource="http://purl.org/dc/dcmitype/StillImage"/>
    <dc:date>2024-01-25T10:38:29.345694</dc:date>
    <dc:format>image/svg+xml</dc:format>
    <dc:creator>
     <cc:Agent>
      <dc:title>Matplotlib v3.7.2, https://matplotlib.org/</dc:title>
     </cc:Agent>
    </dc:creator>
   </cc:Work>
  </rdf:RDF>
 </metadata>
 <defs>
  <style type="text/css">*{stroke-linejoin: round; stroke-linecap: butt}</style>
 </defs>
 <g id="figure_1">
  <g id="patch_1">
   <path d="M 0 183.01625 
L 236.528 183.01625 
L 236.528 0 
L 0 0 
z
" style="fill: #ffffff"/>
  </g>
  <g id="axes_1">
   <g id="patch_2">
    <path d="M 33.02 156.09375 
L 224.828 156.09375 
L 224.828 10.29375 
L 33.02 10.29375 
z
" style="fill: #ffffff"/>
   </g>
   <g id="PathCollection_1">
    <defs>
     <path id="m90072811ea" d="M 0 0.5 
C 0.132602 0.5 0.25979 0.447317 0.353553 0.353553 
C 0.447317 0.25979 0.5 0.132602 0.5 0 
C 0.5 -0.132602 0.447317 -0.25979 0.353553 -0.353553 
C 0.25979 -0.447317 0.132602 -0.5 0 -0.5 
C -0.132602 -0.5 -0.25979 -0.447317 -0.353553 -0.353553 
C -0.447317 -0.25979 -0.5 -0.132602 -0.5 0 
C -0.5 0.132602 -0.447317 0.25979 -0.353553 0.353553 
C -0.25979 0.447317 -0.132602 0.5 0 0.5 
z
" style="stroke: #385989"/>
    </defs>
    <g clip-path="url(#pa5678ff893)">
     <use xlink:href="#m90072811ea" x="130.002736" y="69.826631" style="fill: #385989; stroke: #385989"/>
     <use xlink:href="#m90072811ea" x="49.776774" y="141.139205" style="fill: #385989; stroke: #385989"/>
     <use xlink:href="#m90072811ea" x="135.540966" y="69.640661" style="fill: #385989; stroke: #385989"/>
     <use xlink:href="#m90072811ea" x="97.546372" y="113.226584" style="fill: #385989; stroke: #385989"/>
     <use xlink:href="#m90072811ea" x="84.364678" y="117.017579" style="fill: #385989; stroke: #385989"/>
     <use xlink:href="#m90072811ea" x="102.610353" y="112.513847" style="fill: #385989; stroke: #385989"/>
     <use xlink:href="#m90072811ea" x="112.947018" y="90.775377" style="fill: #385989; stroke: #385989"/>
     <use xlink:href="#m90072811ea" x="90.320151" y="112.379738" style="fill: #385989; stroke: #385989"/>
     <use xlink:href="#m90072811ea" x="59.660802" y="136.190989" style="fill: #385989; stroke: #385989"/>
     <use xlink:href="#m90072811ea" x="94.514761" y="97.298281" style="fill: #385989; stroke: #385989"/>
     <use xlink:href="#m90072811ea" x="104.413462" y="113.678929" style="fill: #385989; stroke: #385989"/>
     <use xlink:href="#m90072811ea" x="65.863167" y="138.120262" style="fill: #385989; stroke: #385989"/>
     <use xlink:href="#m90072811ea" x="17.676355" y="166.149116" style="fill: #385989; stroke: #385989"/>
     <use xlink:href="#m90072811ea" x="82.949106" y="128.871726" style="fill: #385989; stroke: #385989"/>
     <use xlink:href="#m90072811ea" x="98.965319" y="103.455951" style="fill: #385989; stroke: #385989"/>
     <use xlink:href="#m90072811ea" x="93.847423" y="111.229421" style="fill: #385989; stroke: #385989"/>
     <use xlink:href="#m90072811ea" x="100.110696" y="97.072211" style="fill: #385989; stroke: #385989"/>
     <use xlink:href="#m90072811ea" x="69.682881" y="125.071866" style="fill: #385989; stroke: #385989"/>
     <use xlink:href="#m90072811ea" x="139.357376" y="74.960086" style="fill: #385989; stroke: #385989"/>
     <use xlink:href="#m90072811ea" x="63.779628" y="120.984346" style="fill: #385989; stroke: #385989"/>
     <use xlink:href="#m90072811ea" x="73.848489" y="118.260264" style="fill: #385989; stroke: #385989"/>
     <use xlink:href="#m90072811ea" x="92.024936" y="103.115617" style="fill: #385989; stroke: #385989"/>
     <use xlink:href="#m90072811ea" x="79.033" y="115.801149" style="fill: #385989; stroke: #385989"/>
     <use xlink:href="#m90072811ea" x="115.783261" y="89.29686" style="fill: #385989; stroke: #385989"/>
     <use xlink:href="#m90072811ea" x="79.616531" y="128.890414" style="fill: #385989; stroke: #385989"/>
     <use xlink:href="#m90072811ea" x="68.805819" y="134.129158" style="fill: #385989; stroke: #385989"/>
     <use xlink:href="#m90072811ea" x="124.403809" y="97.59675" style="fill: #385989; stroke: #385989"/>
     <use xlink:href="#m90072811ea" x="25.704375" y="156.90774" style="fill: #385989; stroke: #385989"/>
     <use xlink:href="#m90072811ea" x="17.511935" y="163.043172" style="fill: #385989; stroke: #385989"/>
     <use xlink:href="#m90072811ea" x="129.266729" y="83.784248" style="fill: #385989; stroke: #385989"/>
     <use xlink:href="#m90072811ea" x="96.394993" y="106.971288" style="fill: #385989; stroke: #385989"/>
     <use xlink:href="#m90072811ea" x="72.428562" y="116.021291" style="fill: #385989; stroke: #385989"/>
     <use xlink:href="#m90072811ea" x="80.132344" y="115.588104" style="fill: #385989; stroke: #385989"/>
     <use xlink:href="#m90072811ea" x="62.02184" y="142.291088" style="fill: #385989; stroke: #385989"/>
     <use xlink:href="#m90072811ea" x="43.649253" y="152.21243" style="fill: #385989; stroke: #385989"/>
     <use xlink:href="#m90072811ea" x="59.819803" y="125.736851" style="fill: #385989; stroke: #385989"/>
     <use xlink:href="#m90072811ea" x="123.027266" y="82.104427" style="fill: #385989; stroke: #385989"/>
     <use xlink:href="#m90072811ea" x="36.943158" y="156.032931" style="fill: #385989; stroke: #385989"/>
     <use xlink:href="#m90072811ea" x="98.622094" y="104.000852" style="fill: #385989; stroke: #385989"/>
     <use xlink:href="#m90072811ea" x="71.86394" y="129.031071" style="fill: #385989; stroke: #385989"/>
     <use xlink:href="#m90072811ea" x="74.954466" y="133.458919" style="fill: #385989; stroke: #385989"/>
     <use xlink:href="#m90072811ea" x="22.455096" y="162.324364" style="fill: #385989; stroke: #385989"/>
     <use xlink:href="#m90072811ea" x="97.792947" y="106.14993" style="fill: #385989; stroke: #385989"/>
     <use xlink:href="#m90072811ea" x="65.343514" y="138.210522" style="fill: #385989; stroke: #385989"/>
     <use xlink:href="#m90072811ea" x="77.134188" y="121.227531" style="fill: #385989; stroke: #385989"/>
     <use xlink:href="#m90072811ea" x="71.215718" y="126.784189" style="fill: #385989; stroke: #385989"/>
     <use xlink:href="#m90072811ea" x="64.834997" y="152.764767" style="fill: #385989; stroke: #385989"/>
     <use xlink:href="#m90072811ea" x="42.700133" y="151.580507" style="fill: #385989; stroke: #385989"/>
     <use xlink:href="#m90072811ea" x="85.020501" y="113.830765" style="fill: #385989; stroke: #385989"/>
     <use xlink:href="#m90072811ea" x="57.34805" y="139.470862" style="fill: #385989; stroke: #385989"/>
     <use xlink:href="#m90072811ea" x="123.73851" y="93.597492" style="fill: #385989; stroke: #385989"/>
     <use xlink:href="#m90072811ea" x="65.737611" y="135.68319" style="fill: #385989; stroke: #385989"/>
     <use xlink:href="#m90072811ea" x="113.446988" y="82.080912" style="fill: #385989; stroke: #385989"/>
     <use xlink:href="#m90072811ea" x="4.28521" y="186.497657" style="fill: #385989; stroke: #385989"/>
     <use xlink:href="#m90072811ea" x="50.771778" y="141.389051" style="fill: #385989; stroke: #385989"/>
     <use xlink:href="#m90072811ea" x="117.27565" y="90.352287" style="fill: #385989; stroke: #385989"/>
     <use xlink:href="#m90072811ea" x="102.819447" y="114.452602" style="fill: #385989; stroke: #385989"/>
     <use xlink:href="#m90072811ea" x="62.977097" y="122.316694" style="fill: #385989; stroke: #385989"/>
     <use xlink:href="#m90072811ea" x="51.112281" y="149.321054" style="fill: #385989; stroke: #385989"/>
     <use xlink:href="#m90072811ea" x="19.105342" y="168.015399" style="fill: #385989; stroke: #385989"/>
     <use xlink:href="#m90072811ea" x="84.837867" y="103.971382" style="fill: #385989; stroke: #385989"/>
     <use xlink:href="#m90072811ea" x="81.094837" y="117.800908" style="fill: #385989; stroke: #385989"/>
     <use xlink:href="#m90072811ea" x="82.109789" y="111.024451" style="fill: #385989; stroke: #385989"/>
     <use xlink:href="#m90072811ea" x="125.730024" y="85.408778" style="fill: #385989; stroke: #385989"/>
     <use xlink:href="#m90072811ea" x="40.844552" y="151.057757" style="fill: #385989; stroke: #385989"/>
     <use xlink:href="#m90072811ea" x="51.937452" y="140.1515" style="fill: #385989; stroke: #385989"/>
     <use xlink:href="#m90072811ea" x="54.307553" y="137.209455" style="fill: #385989; stroke: #385989"/>
     <use xlink:href="#m90072811ea" x="131.212773" y="86.027966" style="fill: #385989; stroke: #385989"/>
     <use xlink:href="#m90072811ea" x="95.105632" y="115.886879" style="fill: #385989; stroke: #385989"/>
     <use xlink:href="#m90072811ea" x="97.467352" y="103.27727" style="fill: #385989; stroke: #385989"/>
     <use xlink:href="#m90072811ea" x="110.477461" y="95.429915" style="fill: #385989; stroke: #385989"/>
     <use xlink:href="#m90072811ea" x="67.901606" y="135.71888" style="fill: #385989; stroke: #385989"/>
     <use xlink:href="#m90072811ea" x="87.070766" y="113.313253" style="fill: #385989; stroke: #385989"/>
     <use xlink:href="#m90072811ea" x="83.169281" y="112.820658" style="fill: #385989; stroke: #385989"/>
     <use xlink:href="#m90072811ea" x="91.017808" y="122.138528" style="fill: #385989; stroke: #385989"/>
     <use xlink:href="#m90072811ea" x="73.791387" y="131.466114" style="fill: #385989; stroke: #385989"/>
     <use xlink:href="#m90072811ea" x="19.345287" y="164.858984" style="fill: #385989; stroke: #385989"/>
     <use xlink:href="#m90072811ea" x="22.170064" y="157.962731" style="fill: #385989; stroke: #385989"/>
     <use xlink:href="#m90072811ea" x="116.735474" y="78.989078" style="fill: #385989; stroke: #385989"/>
     <use xlink:href="#m90072811ea" x="48.646606" y="135.372908" style="fill: #385989; stroke: #385989"/>
     <use xlink:href="#m90072811ea" x="87.618625" y="121.116587" style="fill: #385989; stroke: #385989"/>
     <use xlink:href="#m90072811ea" x="117.056572" y="82.703481" style="fill: #385989; stroke: #385989"/>
     <use xlink:href="#m90072811ea" x="34.620579" y="151.515073" style="fill: #385989; stroke: #385989"/>
     <use xlink:href="#m90072811ea" x="106.226033" y="88.267196" style="fill: #385989; stroke: #385989"/>
     <use xlink:href="#m90072811ea" x="50.694351" y="146.696058" style="fill: #385989; stroke: #385989"/>
     <use xlink:href="#m90072811ea" x="77.891939" y="120.382922" style="fill: #385989; stroke: #385989"/>
     <use xlink:href="#m90072811ea" x="70.433011" y="120.553462" style="fill: #385989; stroke: #385989"/>
     <use xlink:href="#m90072811ea" x="37.161667" y="158.299681" style="fill: #385989; stroke: #385989"/>
     <use xlink:href="#m90072811ea" x="75.45124" y="130.923983" style="fill: #385989; stroke: #385989"/>
     <use xlink:href="#m90072811ea" x="61.38178" y="132.327029" style="fill: #385989; stroke: #385989"/>
     <use xlink:href="#m90072811ea" x="66.550526" y="117.966646" style="fill: #385989; stroke: #385989"/>
     <use xlink:href="#m90072811ea" x="52.063107" y="148.38181" style="fill: #385989; stroke: #385989"/>
     <use xlink:href="#m90072811ea" x="67.992542" y="129.564048" style="fill: #385989; stroke: #385989"/>
     <use xlink:href="#m90072811ea" x="78.923286" y="121.564514" style="fill: #385989; stroke: #385989"/>
     <use xlink:href="#m90072811ea" x="67.134" y="134.857318" style="fill: #385989; stroke: #385989"/>
     <use xlink:href="#m90072811ea" x="88.484994" y="113.955819" style="fill: #385989; stroke: #385989"/>
     <use xlink:href="#m90072811ea" x="100.308813" y="107.70183" style="fill: #385989; stroke: #385989"/>
     <use xlink:href="#m90072811ea" x="37.370799" y="151.233282" style="fill: #385989; stroke: #385989"/>
     <use xlink:href="#m90072811ea" x="40.19949" y="143.685467" style="fill: #385989; stroke: #385989"/>
     <use xlink:href="#m90072811ea" x="17.183948" y="166.80804" style="fill: #385989; stroke: #385989"/>
     <use xlink:href="#m90072811ea" x="69.756675" y="121.92936" style="fill: #385989; stroke: #385989"/>
     <use xlink:href="#m90072811ea" x="105.62348" y="97.646934" style="fill: #385989; stroke: #385989"/>
     <use xlink:href="#m90072811ea" x="68.96343" y="134.814916" style="fill: #385989; stroke: #385989"/>
     <use xlink:href="#m90072811ea" x="50.398622" y="145.273098" style="fill: #385989; stroke: #385989"/>
     <use xlink:href="#m90072811ea" x="40.953447" y="146.854291" style="fill: #385989; stroke: #385989"/>
     <use xlink:href="#m90072811ea" x="58.340939" y="135.46686" style="fill: #385989; stroke: #385989"/>
     <use xlink:href="#m90072811ea" x="74.268167" y="111.813344" style="fill: #385989; stroke: #385989"/>
     <use xlink:href="#m90072811ea" x="11.024903" y="171.362247" style="fill: #385989; stroke: #385989"/>
     <use xlink:href="#m90072811ea" x="123.280581" y="99.011431" style="fill: #385989; stroke: #385989"/>
     <use xlink:href="#m90072811ea" x="76.972795" y="118.61991" style="fill: #385989; stroke: #385989"/>
     <use xlink:href="#m90072811ea" x="81.893416" y="117.548228" style="fill: #385989; stroke: #385989"/>
     <use xlink:href="#m90072811ea" x="90.792201" y="112.094161" style="fill: #385989; stroke: #385989"/>
     <use xlink:href="#m90072811ea" x="23.745464" y="161.357386" style="fill: #385989; stroke: #385989"/>
     <use xlink:href="#m90072811ea" x="57.638155" y="156.711021" style="fill: #385989; stroke: #385989"/>
     <use xlink:href="#m90072811ea" x="73.75512" y="121.770638" style="fill: #385989; stroke: #385989"/>
     <use xlink:href="#m90072811ea" x="7.519457" y="177.007391" style="fill: #385989; stroke: #385989"/>
     <use xlink:href="#m90072811ea" x="67.127905" y="127.540886" style="fill: #385989; stroke: #385989"/>
     <use xlink:href="#m90072811ea" x="81.526478" y="111.466256" style="fill: #385989; stroke: #385989"/>
     <use xlink:href="#m90072811ea" x="88.049071" y="99.786309" style="fill: #385989; stroke: #385989"/>
     <use xlink:href="#m90072811ea" x="18.56317" y="166.970011" style="fill: #385989; stroke: #385989"/>
     <use xlink:href="#m90072811ea" x="73.23048" y="125.026664" style="fill: #385989; stroke: #385989"/>
     <use xlink:href="#m90072811ea" x="45.208409" y="149.575906" style="fill: #385989; stroke: #385989"/>
     <use xlink:href="#m90072811ea" x="89.982793" y="109.022884" style="fill: #385989; stroke: #385989"/>
     <use xlink:href="#m90072811ea" x="61.332271" y="140.254944" style="fill: #385989; stroke: #385989"/>
     <use xlink:href="#m90072811ea" x="88.140849" y="120.190392" style="fill: #385989; stroke: #385989"/>
     <use xlink:href="#m90072811ea" x="92.136314" y="115.523471" style="fill: #385989; stroke: #385989"/>
     <use xlink:href="#m90072811ea" x="96.261968" y="115.299615" style="fill: #385989; stroke: #385989"/>
     <use xlink:href="#m90072811ea" x="80.03621" y="115.376409" style="fill: #385989; stroke: #385989"/>
     <use xlink:href="#m90072811ea" x="54.725741" y="131.289456" style="fill: #385989; stroke: #385989"/>
     <use xlink:href="#m90072811ea" x="84.188832" y="119.189226" style="fill: #385989; stroke: #385989"/>
     <use xlink:href="#m90072811ea" x="84.681832" y="123.112134" style="fill: #385989; stroke: #385989"/>
     <use xlink:href="#m90072811ea" x="16.548727" y="164.026555" style="fill: #385989; stroke: #385989"/>
     <use xlink:href="#m90072811ea" x="68.403264" y="132.390782" style="fill: #385989; stroke: #385989"/>
     <use xlink:href="#m90072811ea" x="118.32951" y="85.967951" style="fill: #385989; stroke: #385989"/>
     <use xlink:href="#m90072811ea" x="65.512838" y="130.596768" style="fill: #385989; stroke: #385989"/>
     <use xlink:href="#m90072811ea" x="34.907915" y="165.668871" style="fill: #385989; stroke: #385989"/>
     <use xlink:href="#m90072811ea" x="38.099614" y="168.820089" style="fill: #385989; stroke: #385989"/>
     <use xlink:href="#m90072811ea" x="13.62005" y="168.107014" style="fill: #385989; stroke: #385989"/>
     <use xlink:href="#m90072811ea" x="35.403306" y="156.229992" style="fill: #385989; stroke: #385989"/>
     <use xlink:href="#m90072811ea" x="61.796429" y="135.797862" style="fill: #385989; stroke: #385989"/>
     <use xlink:href="#m90072811ea" x="49.315516" y="146.178427" style="fill: #385989; stroke: #385989"/>
     <use xlink:href="#m90072811ea" x="70.683413" y="130.396843" style="fill: #385989; stroke: #385989"/>
     <use xlink:href="#m90072811ea" x="24.326991" y="155.423115" style="fill: #385989; stroke: #385989"/>
     <use xlink:href="#m90072811ea" x="47.504719" y="148.312894" style="fill: #385989; stroke: #385989"/>
     <use xlink:href="#m90072811ea" x="80.829849" y="123.21221" style="fill: #385989; stroke: #385989"/>
     <use xlink:href="#m90072811ea" x="94.313167" y="99.359646" style="fill: #385989; stroke: #385989"/>
     <use xlink:href="#m90072811ea" x="12.085034" y="173.254365" style="fill: #385989; stroke: #385989"/>
     <use xlink:href="#m90072811ea" x="68.34445" y="133.813864" style="fill: #385989; stroke: #385989"/>
     <use xlink:href="#m90072811ea" x="95.464779" y="109.37357" style="fill: #385989; stroke: #385989"/>
     <use xlink:href="#m90072811ea" x="34.7305" y="154.632459" style="fill: #385989; stroke: #385989"/>
    </g>
   </g>
   <g id="PolyCollection_1">
    <path d="M -30.916 219.27375 
L -30.916 190.11375 
L -27.041091 187.315568 
L -23.166182 184.517386 
L -19.291273 181.719205 
L -15.416364 178.921023 
L -11.541455 176.122841 
L -7.666545 173.324659 
L -3.791636 170.526477 
L 0.083273 167.728295 
L 3.958182 164.930114 
L 7.833091 162.131932 
L 11.708 159.33375 
L 15.582909 156.535568 
L 19.457818 153.737386 
L 23.332727 150.939205 
L 27.207636 148.141023 
L 31.082545 145.342841 
L 34.957455 142.544659 
L 38.832364 139.746477 
L 42.707273 136.948295 
L 46.582182 134.150114 
L 50.457091 131.351932 
L 54.332 128.55375 
L 58.206909 125.755568 
L 62.081818 122.957386 
L 65.956727 120.159205 
L 69.831636 117.361023 
L 73.706545 114.562841 
L 77.581455 111.764659 
L 81.456364 108.966477 
L 85.331273 106.168295 
L 89.206182 103.370114 
L 93.081091 100.571932 
L 96.956 97.77375 
L 100.830909 94.975568 
L 104.705818 92.177386 
L 108.580727 89.379205 
L 112.455636 86.581023 
L 116.330545 83.782841 
L 120.205455 80.984659 
L 124.080364 78.186477 
L 127.955273 75.388295 
L 131.830182 72.590114 
L 135.705091 69.791932 
L 139.58 66.99375 
L 143.454909 64.195568 
L 147.329818 61.397386 
L 151.204727 58.599205 
L 155.079636 55.801023 
L 158.954545 53.002841 
L 162.829455 50.204659 
L 166.704364 47.406477 
L 170.579273 44.608295 
L 174.454182 41.810114 
L 178.329091 39.011932 
L 182.204 36.21375 
L 186.078909 33.415568 
L 189.953818 30.617386 
L 193.828727 27.819205 
L 197.703636 25.021023 
L 201.578545 22.222841 
L 205.453455 19.424659 
L 209.328364 16.626477 
L 213.203273 13.828295 
L 217.078182 11.030114 
L 220.953091 8.231932 
L 224.828 5.43375 
L 228.702909 2.635568 
L 232.577818 -0.162614 
L 236.452727 -2.960795 
L 240.327636 -5.758977 
L 244.202545 -8.557159 
L 248.077455 -11.355341 
L 251.952364 -14.153523 
L 255.827273 -16.951705 
L 259.702182 -19.749886 
L 263.577091 -22.548068 
L 267.452 -25.34625 
L 271.326909 -28.144432 
L 275.201818 -30.942614 
L 279.076727 -33.740795 
L 282.951636 -36.538977 
L 286.826545 -39.337159 
L 290.701455 -42.135341 
L 294.576364 -44.933523 
L 298.451273 -47.731705 
L 302.326182 -50.529886 
L 306.201091 -53.328068 
L 310.076 -56.12625 
L 313.950909 -58.924432 
L 317.825818 -61.722614 
L 321.700727 -64.520795 
L 325.575636 -67.318977 
L 329.450545 -70.117159 
L 333.325455 -72.915341 
L 337.200364 -75.713523 
L 341.075273 -78.511705 
L 344.950182 -81.309886 
L 348.825091 -84.108068 
L 352.7 -86.90625 
L 352.7 -86.90625 
L 352.7 -86.90625 
L 348.825091 -83.813523 
L 344.950182 -80.720795 
L 341.075273 -77.628068 
L 337.200364 -74.535341 
L 333.325455 -71.442614 
L 329.450545 -68.349886 
L 325.575636 -65.257159 
L 321.700727 -62.164432 
L 317.825818 -59.071705 
L 313.950909 -55.978977 
L 310.076 -52.88625 
L 306.201091 -49.793523 
L 302.326182 -46.700795 
L 298.451273 -43.608068 
L 294.576364 -40.515341 
L 290.701455 -37.422614 
L 286.826545 -34.329886 
L 282.951636 -31.237159 
L 279.076727 -28.144432 
L 275.201818 -25.051705 
L 271.326909 -21.958977 
L 267.452 -18.86625 
L 263.577091 -15.773523 
L 259.702182 -12.680795 
L 255.827273 -9.588068 
L 251.952364 -6.495341 
L 248.077455 -3.402614 
L 244.202545 -0.309886 
L 240.327636 2.782841 
L 236.452727 5.875568 
L 232.577818 8.968295 
L 228.702909 12.061023 
L 224.828 15.15375 
L 220.953091 18.246477 
L 217.078182 21.339205 
L 213.203273 24.431932 
L 209.328364 27.524659 
L 205.453455 30.617386 
L 201.578545 33.710114 
L 197.703636 36.802841 
L 193.828727 39.895568 
L 189.953818 42.988295 
L 186.078909 46.081023 
L 182.204 49.17375 
L 178.329091 52.266477 
L 174.454182 55.359205 
L 170.579273 58.451932 
L 166.704364 61.544659 
L 162.829455 64.637386 
L 158.954545 67.730114 
L 155.079636 70.822841 
L 151.204727 73.915568 
L 147.329818 77.008295 
L 143.454909 80.101023 
L 139.58 83.19375 
L 135.705091 86.286477 
L 131.830182 89.379205 
L 127.955273 92.471932 
L 124.080364 95.564659 
L 120.205455 98.657386 
L 116.330545 101.750114 
L 112.455636 104.842841 
L 108.580727 107.935568 
L 104.705818 111.028295 
L 100.830909 114.121023 
L 96.956 117.21375 
L 93.081091 120.306477 
L 89.206182 123.399205 
L 85.331273 126.491932 
L 81.456364 129.584659 
L 77.581455 132.677386 
L 73.706545 135.770114 
L 69.831636 138.862841 
L 65.956727 141.955568 
L 62.081818 145.048295 
L 58.206909 148.141023 
L 54.332 151.23375 
L 50.457091 154.326477 
L 46.582182 157.419205 
L 42.707273 160.511932 
L 38.832364 163.604659 
L 34.957455 166.697386 
L 31.082545 169.790114 
L 27.207636 172.882841 
L 23.332727 175.975568 
L 19.457818 179.068295 
L 15.582909 182.161023 
L 11.708 185.25375 
L 7.833091 188.346477 
L 3.958182 191.439205 
L 0.083273 194.531932 
L -3.791636 197.624659 
L -7.666545 200.717386 
L -11.541455 203.810114 
L -15.416364 206.902841 
L -19.291273 209.995568 
L -23.166182 213.088295 
L -27.041091 216.181023 
L -30.916 219.27375 
z
" clip-path="url(#pa5678ff893)" style="fill: #385989; fill-opacity: 0.4"/>
   </g>
   <g id="matplotlib.axis_1">
    <g id="xtick_1">
     <g id="line2d_1">
      <defs>
       <path id="m17f857b18f" d="M 0 0 
L 0 -3.5 
" style="stroke: #000000; stroke-width: 0.8"/>
      </defs>
      <g>
       <use xlink:href="#m17f857b18f" x="33.02" y="156.09375" style="stroke: #000000; stroke-width: 0.8"/>
      </g>
     </g>
     <g id="text_1">
      <!-- -10 -->
      <g transform="translate(26.27 165.78125) scale(0.09 -0.09)">
       <defs>
        <path id="SimHei-2d" d="M 2975 2125 
L 125 2125 
L 125 2525 
L 2975 2525 
L 2975 2125 
z
" transform="scale(0.015625)"/>
        <path id="SimHei-31" d="M 1400 3600 
Q 1075 3275 575 2975 
L 575 3450 
Q 1200 3875 1600 4450 
L 1900 4450 
L 1900 150 
L 1400 150 
L 1400 3600 
z
" transform="scale(0.015625)"/>
        <path id="SimHei-30" d="M 225 2537 
Q 250 3200 412 3587 
Q 575 3975 875 4225 
Q 1175 4475 1612 4475 
Q 2050 4475 2375 4112 
Q 2700 3750 2800 3200 
Q 2900 2650 2862 1937 
Q 2825 1225 2612 775 
Q 2400 325 1975 150 
Q 1550 -25 1125 187 
Q 700 400 525 750 
Q 350 1100 275 1487 
Q 200 1875 225 2537 
z
M 750 2687 
Q 675 2000 800 1462 
Q 925 925 1212 700 
Q 1500 475 1800 612 
Q 2100 750 2237 1162 
Q 2375 1575 2375 2062 
Q 2375 2550 2337 2950 
Q 2300 3350 2112 3675 
Q 1925 4000 1612 4012 
Q 1300 4025 1062 3700 
Q 825 3375 750 2687 
z
" transform="scale(0.015625)"/>
       </defs>
       <use xlink:href="#SimHei-2d"/>
       <use xlink:href="#SimHei-31" x="50"/>
       <use xlink:href="#SimHei-30" x="100"/>
      </g>
     </g>
    </g>
    <g id="xtick_2">
     <g id="line2d_2">
      <g>
       <use xlink:href="#m17f857b18f" x="64.988" y="156.09375" style="stroke: #000000; stroke-width: 0.8"/>
      </g>
     </g>
     <g id="text_2">
      <!-- -9 -->
      <g transform="translate(60.488 165.78125) scale(0.09 -0.09)">
       <defs>
        <path id="SimHei-39" d="M 800 75 
Q 1350 1000 1700 1750 
Q 1075 1650 662 1912 
Q 250 2175 162 2625 
Q 75 3075 175 3437 
Q 275 3800 487 4037 
Q 700 4275 1000 4375 
Q 1300 4475 1537 4475 
Q 1775 4475 2025 4375 
Q 2275 4275 2475 4075 
Q 2675 3875 2750 3662 
Q 2825 3450 2825 3112 
Q 2825 2775 2575 2250 
Q 2325 1725 1350 75 
L 800 75 
z
M 662 2875 
Q 700 2550 937 2337 
Q 1175 2125 1450 2150 
Q 1725 2175 1887 2300 
Q 2050 2425 2200 2725 
Q 2300 3100 2250 3362 
Q 2200 3625 1987 3800 
Q 1775 3975 1525 3975 
Q 1375 4000 1137 3900 
Q 900 3800 762 3500 
Q 625 3200 662 2875 
z
" transform="scale(0.015625)"/>
       </defs>
       <use xlink:href="#SimHei-2d"/>
       <use xlink:href="#SimHei-39" x="50"/>
      </g>
     </g>
    </g>
    <g id="xtick_3">
     <g id="line2d_3">
      <g>
       <use xlink:href="#m17f857b18f" x="96.956" y="156.09375" style="stroke: #000000; stroke-width: 0.8"/>
      </g>
     </g>
     <g id="text_3">
      <!-- -8 -->
      <g transform="translate(92.456 165.78125) scale(0.09 -0.09)">
       <defs>
        <path id="SimHei-38" d="M 175 1375 
Q 175 1675 325 1962 
Q 475 2250 825 2425 
Q 525 2600 425 2812 
Q 325 3025 312 3300 
Q 300 3575 387 3775 
Q 475 3975 650 4150 
Q 825 4325 1037 4387 
Q 1250 4450 1500 4450 
Q 1750 4450 1950 4400 
Q 2150 4350 2375 4187 
Q 2600 4025 2700 3725 
Q 2800 3425 2687 3025 
Q 2575 2625 2100 2400 
Q 2525 2275 2700 2012 
Q 2875 1750 2875 1375 
Q 2875 1000 2762 775 
Q 2650 550 2512 400 
Q 2375 250 2137 162 
Q 1900 75 1537 75 
Q 1175 75 912 162 
Q 650 250 475 425 
Q 300 600 237 837 
Q 175 1075 175 1375 
z
M 687 1400 
Q 675 1100 787 875 
Q 900 650 1200 587 
Q 1500 525 1825 600 
Q 2150 675 2275 950 
Q 2400 1225 2362 1500 
Q 2325 1775 2050 1962 
Q 1775 2150 1450 2125 
Q 1125 2100 912 1900 
Q 700 1700 687 1400 
z
M 775 3350 
Q 775 3100 950 2875 
Q 1125 2650 1500 2650 
Q 1875 2650 2062 2875 
Q 2250 3100 2237 3412 
Q 2225 3725 2012 3875 
Q 1800 4025 1437 4000 
Q 1075 3975 925 3787 
Q 775 3600 775 3350 
z
" transform="scale(0.015625)"/>
       </defs>
       <use xlink:href="#SimHei-2d"/>
       <use xlink:href="#SimHei-38" x="50"/>
      </g>
     </g>
    </g>
    <g id="xtick_4">
     <g id="line2d_4">
      <g>
       <use xlink:href="#m17f857b18f" x="128.924" y="156.09375" style="stroke: #000000; stroke-width: 0.8"/>
      </g>
     </g>
     <g id="text_4">
      <!-- -7 -->
      <g transform="translate(124.424 165.78125) scale(0.09 -0.09)">
       <defs>
        <path id="SimHei-37" d="M 850 150 
Q 1300 2050 2425 3925 
L 275 3925 
L 275 4375 
L 2950 4375 
L 2950 3950 
Q 1775 2050 1400 150 
L 850 150 
z
" transform="scale(0.015625)"/>
       </defs>
       <use xlink:href="#SimHei-2d"/>
       <use xlink:href="#SimHei-37" x="50"/>
      </g>
     </g>
    </g>
    <g id="xtick_5">
     <g id="line2d_5">
      <g>
       <use xlink:href="#m17f857b18f" x="160.892" y="156.09375" style="stroke: #000000; stroke-width: 0.8"/>
      </g>
     </g>
     <g id="text_5">
      <!-- -6 -->
      <g transform="translate(156.392 165.78125) scale(0.09 -0.09)">
       <defs>
        <path id="SimHei-36" d="M 250 1612 
Q 275 1975 387 2225 
Q 500 2475 725 2850 
L 1750 4450 
L 2325 4450 
L 1275 2800 
Q 1950 2975 2350 2750 
Q 2750 2525 2887 2237 
Q 3025 1950 3037 1612 
Q 3050 1275 2937 950 
Q 2825 625 2537 362 
Q 2250 100 1737 75 
Q 1225 50 862 262 
Q 500 475 362 862 
Q 225 1250 250 1612 
z
M 1025 787 
Q 1250 550 1625 525 
Q 2000 500 2250 775 
Q 2500 1050 2500 1575 
Q 2500 2100 2187 2300 
Q 1875 2500 1487 2450 
Q 1100 2400 925 2075 
Q 750 1750 775 1387 
Q 800 1025 1025 787 
z
" transform="scale(0.015625)"/>
       </defs>
       <use xlink:href="#SimHei-2d"/>
       <use xlink:href="#SimHei-36" x="50"/>
      </g>
     </g>
    </g>
    <g id="xtick_6">
     <g id="line2d_6">
      <g>
       <use xlink:href="#m17f857b18f" x="192.86" y="156.09375" style="stroke: #000000; stroke-width: 0.8"/>
      </g>
     </g>
     <g id="text_6">
      <!-- -5 -->
      <g transform="translate(188.36 165.78125) scale(0.09 -0.09)">
       <defs>
        <path id="SimHei-35" d="M 550 1325 
Q 725 650 1150 575 
Q 1575 500 1837 662 
Q 2100 825 2212 1087 
Q 2325 1350 2312 1675 
Q 2300 2000 2137 2225 
Q 1975 2450 1725 2525 
Q 1475 2600 1162 2525 
Q 850 2450 650 2175 
L 225 2225 
Q 275 2375 700 4375 
L 2675 4375 
L 2675 3925 
L 1075 3925 
Q 950 3250 825 2850 
Q 1200 3025 1525 3012 
Q 1850 3000 2150 2862 
Q 2450 2725 2587 2487 
Q 2725 2250 2787 2012 
Q 2850 1775 2837 1500 
Q 2825 1225 2725 937 
Q 2625 650 2425 462 
Q 2225 275 1937 162 
Q 1650 50 1275 75 
Q 900 100 562 350 
Q 225 600 100 1200 
L 550 1325 
z
" transform="scale(0.015625)"/>
       </defs>
       <use xlink:href="#SimHei-2d"/>
       <use xlink:href="#SimHei-35" x="50"/>
      </g>
     </g>
    </g>
    <g id="xtick_7">
     <g id="line2d_7">
      <g>
       <use xlink:href="#m17f857b18f" x="224.828" y="156.09375" style="stroke: #000000; stroke-width: 0.8"/>
      </g>
     </g>
     <g id="text_7">
      <!-- -4 -->
      <g transform="translate(220.328 165.78125) scale(0.09 -0.09)">
       <defs>
        <path id="SimHei-34" d="M 2000 1100 
L 75 1100 
L 75 1525 
L 2100 4450 
L 2475 4450 
L 2475 1525 
L 3075 1525 
L 3075 1100 
L 2475 1100 
L 2475 150 
L 2000 150 
L 2000 1100 
z
M 2000 1525 
L 2000 3500 
L 600 1525 
L 2000 1525 
z
" transform="scale(0.015625)"/>
       </defs>
       <use xlink:href="#SimHei-2d"/>
       <use xlink:href="#SimHei-34" x="50"/>
      </g>
     </g>
    </g>
    <g id="text_8">
     <!-- 目标 ln($\theta_{max}$) -->
     <g transform="translate(98.909 174.19625) scale(0.09 -0.09)">
      <defs>
       <path id="SimHei-76ee" d="M 5375 4900 
Q 5350 4175 5350 3525 
L 5350 600 
Q 5350 225 5375 -550 
L 4825 -550 
L 4825 -100 
L 1575 -100 
L 1575 -525 
L 1050 -525 
Q 1075 150 1075 550 
L 1075 3525 
Q 1075 4350 1050 4900 
L 5375 4900 
z
M 4825 300 
L 4825 1475 
L 1575 1475 
L 1575 300 
L 4825 300 
z
M 4825 1875 
L 4825 3000 
L 1575 3000 
L 1575 1875 
L 4825 1875 
z
M 4825 3400 
L 4825 4500 
L 1575 4500 
L 1575 3400 
L 4825 3400 
z
" transform="scale(0.015625)"/>
       <path id="SimHei-6807" d="M 1275 4400 
Q 1275 4800 1250 5175 
L 1750 5175 
Q 1725 4825 1725 4400 
L 1725 3800 
Q 2125 3800 2575 3825 
L 2575 3350 
Q 2125 3375 1725 3375 
L 1725 2525 
Q 1900 2650 2075 2800 
Q 2400 2275 2650 1775 
Q 2375 1650 2175 1500 
Q 2025 2000 1725 2425 
L 1725 475 
Q 1725 -50 1750 -575 
L 1250 -575 
Q 1275 -25 1275 475 
L 1275 2100 
Q 1025 1400 500 750 
Q 350 950 125 1125 
Q 550 1550 812 2187 
Q 1075 2825 1150 3375 
Q 675 3375 325 3325 
L 325 3825 
Q 800 3800 1275 3800 
L 1275 4400 
z
M 5175 3125 
Q 5675 3125 6050 3150 
L 6050 2675 
Q 5675 2700 5275 2700 
L 4500 2700 
L 4500 175 
Q 4500 -225 4275 -350 
Q 4050 -475 3475 -550 
Q 3425 -250 3275 25 
Q 3775 25 3900 62 
Q 4025 100 4025 350 
L 4025 2700 
L 3400 2700 
Q 2775 2700 2500 2650 
L 2500 3150 
Q 2825 3125 3400 3125 
L 5175 3125 
z
M 4900 4775 
Q 5425 4775 5750 4800 
L 5750 4300 
Q 5275 4350 4750 4350 
L 3525 4350 
Q 3125 4350 2750 4300 
L 2750 4800 
Q 3100 4775 3525 4775 
L 4900 4775 
z
M 5275 2025 
Q 5825 1175 6200 500 
Q 5925 375 5650 200 
Q 5375 925 4825 1725 
Q 5075 1850 5275 2025 
z
M 3600 1775 
Q 3500 1625 3225 975 
Q 2950 325 2800 50 
Q 2575 175 2300 275 
Q 2625 775 2787 1187 
Q 2950 1600 3050 2000 
Q 3325 1875 3600 1775 
z
" transform="scale(0.015625)"/>
       <path id="SimHei-20" transform="scale(0.015625)"/>
       <path id="SimHei-6c" d="M 1825 125 
L 1325 125 
L 1325 4400 
L 1825 4400 
L 1825 125 
z
" transform="scale(0.015625)"/>
       <path id="SimHei-6e" d="M 2800 125 
L 2300 125 
L 2300 1925 
Q 2300 2225 2150 2400 
Q 2000 2575 1750 2575 
Q 1425 2575 1137 2237 
Q 850 1900 850 1400 
L 850 125 
L 350 125 
L 350 2925 
L 850 2925 
L 850 2400 
Q 1050 2675 1287 2825 
Q 1525 2975 1900 2975 
Q 2350 2975 2575 2725 
Q 2800 2475 2800 2100 
L 2800 125 
z
" transform="scale(0.015625)"/>
       <path id="SimHei-28" d="M 2975 -200 
L 2700 -475 
Q 2075 125 1762 775 
Q 1450 1425 1450 2250 
Q 1450 3075 1762 3725 
Q 2075 4375 2700 5000 
L 2975 4725 
Q 2400 4175 2112 3587 
Q 1825 3000 1825 2250 
Q 1825 1500 2112 912 
Q 2400 325 2975 -200 
z
" transform="scale(0.015625)"/>
       <path id="DejaVuSans-Oblique-3b8" d="M 2913 2219 
L 925 2219 
Q 791 1284 928 888 
Q 1100 400 1566 400 
Q 2034 400 2391 891 
Q 2703 1322 2913 2219 
z
M 3009 2750 
Q 3094 3638 2984 3950 
Q 2813 4444 2353 4444 
Q 1875 4444 1525 3956 
Q 1250 3563 1034 2750 
L 3009 2750 
z
M 2444 4913 
Q 3194 4913 3494 4250 
Q 3794 3591 3566 2422 
Q 3341 1256 2781 594 
Q 2225 -72 1475 -72 
Q 722 -72 425 594 
Q 128 1256 353 2422 
Q 581 3591 1134 4250 
Q 1691 4913 2444 4913 
z
" transform="scale(0.015625)"/>
       <path id="DejaVuSans-Oblique-6d" d="M 5747 2113 
L 5338 0 
L 4763 0 
L 5166 2094 
Q 5191 2228 5203 2325 
Q 5216 2422 5216 2491 
Q 5216 2772 5059 2928 
Q 4903 3084 4622 3084 
Q 4203 3084 3875 2770 
Q 3547 2456 3450 1953 
L 3066 0 
L 2491 0 
L 2900 2094 
Q 2925 2209 2937 2307 
Q 2950 2406 2950 2484 
Q 2950 2769 2794 2926 
Q 2638 3084 2363 3084 
Q 1938 3084 1609 2770 
Q 1281 2456 1184 1953 
L 800 0 
L 225 0 
L 909 3500 
L 1484 3500 
L 1375 2956 
Q 1609 3263 1923 3423 
Q 2238 3584 2597 3584 
Q 2978 3584 3223 3384 
Q 3469 3184 3519 2828 
Q 3781 3197 4126 3390 
Q 4472 3584 4856 3584 
Q 5306 3584 5551 3325 
Q 5797 3066 5797 2591 
Q 5797 2488 5784 2364 
Q 5772 2241 5747 2113 
z
" transform="scale(0.015625)"/>
       <path id="DejaVuSans-Oblique-61" d="M 3438 1997 
L 3047 0 
L 2472 0 
L 2578 531 
Q 2325 219 2001 64 
Q 1678 -91 1281 -91 
Q 834 -91 548 182 
Q 263 456 263 884 
Q 263 1497 752 1853 
Q 1241 2209 2100 2209 
L 2900 2209 
L 2931 2363 
Q 2938 2388 2941 2417 
Q 2944 2447 2944 2509 
Q 2944 2788 2717 2942 
Q 2491 3097 2081 3097 
Q 1800 3097 1504 3025 
Q 1209 2953 897 2809 
L 997 3341 
Q 1322 3463 1633 3523 
Q 1944 3584 2234 3584 
Q 2853 3584 3176 3315 
Q 3500 3047 3500 2534 
Q 3500 2431 3484 2292 
Q 3469 2153 3438 1997 
z
M 2816 1759 
L 2241 1759 
Q 1534 1759 1195 1570 
Q 856 1381 856 984 
Q 856 709 1029 553 
Q 1203 397 1509 397 
Q 1978 397 2328 733 
Q 2678 1069 2791 1631 
L 2816 1759 
z
" transform="scale(0.015625)"/>
       <path id="DejaVuSans-Oblique-78" d="M 3841 3500 
L 2234 1784 
L 3219 0 
L 2559 0 
L 1819 1388 
L 531 0 
L -166 0 
L 1556 1844 
L 641 3500 
L 1300 3500 
L 1972 2234 
L 3144 3500 
L 3841 3500 
z
" transform="scale(0.015625)"/>
       <path id="SimHei-29" d="M 1675 2250 
Q 1675 1425 1362 775 
Q 1050 125 425 -475 
L 150 -200 
Q 725 325 1012 912 
Q 1300 1500 1300 2250 
Q 1300 3000 1012 3587 
Q 725 4175 150 4725 
L 425 5000 
Q 1050 4375 1362 3725 
Q 1675 3075 1675 2250 
z
" transform="scale(0.015625)"/>
      </defs>
      <use xlink:href="#SimHei-76ee" transform="translate(0 0.140625)"/>
      <use xlink:href="#SimHei-6807" transform="translate(100 0.140625)"/>
      <use xlink:href="#SimHei-20" transform="translate(200 0.140625)"/>
      <use xlink:href="#SimHei-6c" transform="translate(250 0.140625)"/>
      <use xlink:href="#SimHei-6e" transform="translate(300 0.140625)"/>
      <use xlink:href="#SimHei-28" transform="translate(350 0.140625)"/>
      <use xlink:href="#DejaVuSans-Oblique-3b8" transform="translate(400 0.140625)"/>
      <use xlink:href="#DejaVuSans-Oblique-6d" transform="translate(461.181641 -16.265625) scale(0.7)"/>
      <use xlink:href="#DejaVuSans-Oblique-61" transform="translate(529.370117 -16.265625) scale(0.7)"/>
      <use xlink:href="#DejaVuSans-Oblique-78" transform="translate(572.265625 -16.265625) scale(0.7)"/>
      <use xlink:href="#SimHei-29" transform="translate(616.425781 0.140625)"/>
     </g>
    </g>
   </g>
   <g id="matplotlib.axis_2">
    <g id="ytick_1">
     <g id="line2d_8">
      <defs>
       <path id="m680b1b2da4" d="M 0 0 
L 3.5 0 
" style="stroke: #000000; stroke-width: 0.8"/>
      </defs>
      <g>
       <use xlink:href="#m680b1b2da4" x="33.02" y="156.09375" style="stroke: #000000; stroke-width: 0.8"/>
      </g>
     </g>
     <g id="text_9">
      <!-- -10 -->
      <g transform="translate(16.02 159.1875) scale(0.09 -0.09)">
       <use xlink:href="#SimHei-2d"/>
       <use xlink:href="#SimHei-31" x="50"/>
       <use xlink:href="#SimHei-30" x="100"/>
      </g>
     </g>
    </g>
    <g id="ytick_2">
     <g id="line2d_9">
      <g>
       <use xlink:href="#m680b1b2da4" x="33.02" y="131.79375" style="stroke: #000000; stroke-width: 0.8"/>
      </g>
     </g>
     <g id="text_10">
      <!-- -9 -->
      <g transform="translate(20.52 134.8875) scale(0.09 -0.09)">
       <use xlink:href="#SimHei-2d"/>
       <use xlink:href="#SimHei-39" x="50"/>
      </g>
     </g>
    </g>
    <g id="ytick_3">
     <g id="line2d_10">
      <g>
       <use xlink:href="#m680b1b2da4" x="33.02" y="107.49375" style="stroke: #000000; stroke-width: 0.8"/>
      </g>
     </g>
     <g id="text_11">
      <!-- -8 -->
      <g transform="translate(20.52 110.5875) scale(0.09 -0.09)">
       <use xlink:href="#SimHei-2d"/>
       <use xlink:href="#SimHei-38" x="50"/>
      </g>
     </g>
    </g>
    <g id="ytick_4">
     <g id="line2d_11">
      <g>
       <use xlink:href="#m680b1b2da4" x="33.02" y="83.19375" style="stroke: #000000; stroke-width: 0.8"/>
      </g>
     </g>
     <g id="text_12">
      <!-- -7 -->
      <g transform="translate(20.52 86.2875) scale(0.09 -0.09)">
       <use xlink:href="#SimHei-2d"/>
       <use xlink:href="#SimHei-37" x="50"/>
      </g>
     </g>
    </g>
    <g id="ytick_5">
     <g id="line2d_12">
      <g>
       <use xlink:href="#m680b1b2da4" x="33.02" y="58.89375" style="stroke: #000000; stroke-width: 0.8"/>
      </g>
     </g>
     <g id="text_13">
      <!-- -6 -->
      <g transform="translate(20.52 61.9875) scale(0.09 -0.09)">
       <use xlink:href="#SimHei-2d"/>
       <use xlink:href="#SimHei-36" x="50"/>
      </g>
     </g>
    </g>
    <g id="ytick_6">
     <g id="line2d_13">
      <g>
       <use xlink:href="#m680b1b2da4" x="33.02" y="34.59375" style="stroke: #000000; stroke-width: 0.8"/>
      </g>
     </g>
     <g id="text_14">
      <!-- -5 -->
      <g transform="translate(20.52 37.6875) scale(0.09 -0.09)">
       <use xlink:href="#SimHei-2d"/>
       <use xlink:href="#SimHei-35" x="50"/>
      </g>
     </g>
    </g>
    <g id="ytick_7">
     <g id="line2d_14">
      <g>
       <use xlink:href="#m680b1b2da4" x="33.02" y="10.29375" style="stroke: #000000; stroke-width: 0.8"/>
      </g>
     </g>
     <g id="text_15">
      <!-- -4 -->
      <g transform="translate(20.52 13.3875) scale(0.09 -0.09)">
       <use xlink:href="#SimHei-2d"/>
       <use xlink:href="#SimHei-34" x="50"/>
      </g>
     </g>
    </g>
    <g id="text_16">
     <!-- 预测 ln($\theta_{max}$) -->
     <g transform="translate(14.4 113.20875) rotate(-90) scale(0.09 -0.09)">
      <defs>
       <path id="SimHei-9884" d="M 5200 4800 
Q 5575 4800 5950 4825 
L 5950 4400 
Q 5575 4425 5200 4425 
L 4500 4425 
Q 4425 4050 4350 3600 
L 5725 3600 
Q 5700 3225 5700 2800 
L 5700 1725 
Q 5700 1300 5725 850 
L 5250 850 
L 5250 3225 
L 3550 3225 
L 3550 800 
L 3075 800 
Q 3100 1375 3100 1725 
L 3100 2775 
Q 3100 3175 3075 3600 
L 3900 3600 
Q 4000 4150 4000 4425 
L 3725 4425 
Q 3300 4425 2850 4400 
L 2850 4825 
Q 3325 4800 3725 4800 
L 5200 4800 
z
M 2600 1775 
Q 2350 1825 2150 1825 
Q 2250 2250 2300 2450 
L 1750 2450 
L 1750 125 
Q 1725 -300 1425 -400 
Q 1125 -500 750 -500 
Q 700 -225 575 25 
Q 1125 -25 1212 37 
Q 1300 100 1300 350 
L 1300 2450 
L 1025 2450 
Q 700 2450 350 2425 
L 350 2850 
Q 700 2825 1000 2825 
L 2850 2825 
Q 2725 2325 2600 1775 
z
M 4725 2875 
Q 4625 2575 4600 2100 
Q 4575 1625 4462 1037 
Q 4350 450 3962 62 
Q 3575 -325 2925 -675 
Q 2700 -500 2475 -350 
Q 3075 -125 3437 200 
Q 3800 525 3950 937 
Q 4100 1350 4137 1850 
Q 4175 2350 4175 2925 
L 4725 2875 
z
M 1625 2900 
Q 1275 3275 800 3650 
Q 925 3775 1075 3950 
Q 1250 3825 1425 3675 
Q 1750 4150 1950 4375 
L 1400 4375 
Q 900 4375 450 4350 
L 450 4775 
Q 900 4750 1375 4750 
L 2575 4750 
L 2575 4375 
Q 2200 4100 1725 3400 
L 1950 3200 
Q 1750 3025 1625 2900 
z
M 4775 725 
Q 5725 0 6075 -325 
Q 5850 -500 5725 -650 
Q 5400 -325 5137 -87 
Q 4875 150 4525 350 
Q 4650 525 4775 725 
z
" transform="scale(0.015625)"/>
       <path id="SimHei-6d4b" d="M 4025 4725 
Q 4000 4475 4000 4000 
L 4000 2225 
Q 4000 1775 4025 1350 
L 3550 1350 
L 3550 4325 
L 2350 4325 
L 2350 1325 
L 1900 1325 
Q 1925 1775 1925 2225 
L 1925 4000 
Q 1925 4200 1900 4725 
L 4025 4725 
z
M 5900 5075 
Q 5875 4800 5875 4375 
L 5875 0 
Q 5875 -325 5650 -425 
Q 5425 -525 4975 -600 
Q 4925 -325 4775 -50 
Q 5125 -50 5262 -25 
Q 5400 0 5400 250 
L 5400 4375 
Q 5400 4775 5375 5075 
L 5900 5075 
z
M 3275 3725 
Q 3225 3400 3200 2325 
Q 3175 1250 2837 550 
Q 2500 -150 2075 -600 
Q 1850 -400 1600 -325 
Q 2200 250 2475 962 
Q 2750 1675 2762 2475 
Q 2775 3275 2725 3800 
Q 3000 3750 3275 3725 
z
M 4950 4275 
Q 4925 4000 4925 3575 
L 4925 1825 
Q 4925 1300 4950 850 
L 4450 850 
Q 4475 1150 4475 1825 
L 4475 3575 
Q 4475 4000 4450 4275 
L 4950 4275 
z
M 1700 1675 
Q 1375 1075 1112 487 
Q 850 -100 725 -400 
Q 500 -200 200 -25 
Q 475 300 762 850 
Q 1050 1400 1250 2000 
Q 1475 1825 1700 1675 
z
M 3400 1050 
Q 3800 650 4300 -125 
Q 4100 -225 3875 -450 
Q 3475 275 3025 750 
Q 3225 875 3400 1050 
z
M 600 3525 
Q 1125 3125 1500 2775 
Q 1300 2575 1150 2375 
Q 825 2775 300 3150 
Q 450 3300 600 3525 
z
M 1350 4000 
Q 950 4375 475 4675 
Q 625 4850 775 5050 
Q 1300 4700 1675 4375 
Q 1500 4250 1350 4000 
z
" transform="scale(0.015625)"/>
      </defs>
      <use xlink:href="#SimHei-9884" transform="translate(0 0.703125)"/>
      <use xlink:href="#SimHei-6d4b" transform="translate(100 0.703125)"/>
      <use xlink:href="#SimHei-20" transform="translate(200 0.703125)"/>
      <use xlink:href="#SimHei-6c" transform="translate(250 0.703125)"/>
      <use xlink:href="#SimHei-6e" transform="translate(300 0.703125)"/>
      <use xlink:href="#SimHei-28" transform="translate(350 0.703125)"/>
      <use xlink:href="#DejaVuSans-Oblique-3b8" transform="translate(400 0.703125)"/>
      <use xlink:href="#DejaVuSans-Oblique-6d" transform="translate(461.181641 -15.703125) scale(0.7)"/>
      <use xlink:href="#DejaVuSans-Oblique-61" transform="translate(529.370117 -15.703125) scale(0.7)"/>
      <use xlink:href="#DejaVuSans-Oblique-78" transform="translate(572.265625 -15.703125) scale(0.7)"/>
      <use xlink:href="#SimHei-29" transform="translate(616.425781 0.703125)"/>
     </g>
    </g>
   </g>
   <g id="line2d_15">
    <path d="M -1 181.953547 
L 0.083273 181.130114 
L 3.958182 178.184659 
L 7.833091 175.239205 
L 11.708 172.29375 
L 15.582909 169.348295 
L 19.457818 166.402841 
L 23.332727 163.457386 
L 27.207636 160.511932 
L 31.082545 157.566477 
L 34.957455 154.621023 
L 38.832364 151.675568 
L 42.707273 148.730114 
L 46.582182 145.784659 
L 50.457091 142.839205 
L 54.332 139.89375 
L 58.206909 136.948295 
L 62.081818 134.002841 
L 65.956727 131.057386 
L 69.831636 128.111932 
L 73.706545 125.166477 
L 77.581455 122.221023 
L 81.456364 119.275568 
L 85.331273 116.330114 
L 89.206182 113.384659 
L 93.081091 110.439205 
L 96.956 107.49375 
L 100.830909 104.548295 
L 104.705818 101.602841 
L 108.580727 98.657386 
L 112.455636 95.711932 
L 116.330545 92.766477 
L 120.205455 89.821023 
L 124.080364 86.875568 
L 127.955273 83.930114 
L 131.830182 80.984659 
L 135.705091 78.039205 
L 139.58 75.09375 
L 143.454909 72.148295 
L 147.329818 69.202841 
L 151.204727 66.257386 
L 155.079636 63.311932 
L 158.954545 60.366477 
L 162.829455 57.421023 
L 166.704364 54.475568 
L 170.579273 51.530114 
L 174.454182 48.584659 
L 178.329091 45.639205 
L 182.204 42.69375 
L 186.078909 39.748295 
L 189.953818 36.802841 
L 193.828727 33.857386 
L 197.703636 30.911932 
L 201.578545 27.966477 
L 205.453455 25.021023 
L 209.328364 22.075568 
L 213.203273 19.130114 
L 217.078182 16.184659 
L 220.953091 13.239205 
L 224.828 10.29375 
L 228.702909 7.348295 
L 232.577818 4.402841 
L 236.452727 1.457386 
L 237.528 0.640034 
" clip-path="url(#pa5678ff893)" style="fill: none; stroke-dasharray: 6.4,1.6,1,1.6; stroke-dashoffset: 0; stroke: #fe817d"/>
   </g>
   <g id="line2d_16">
    <path d="M -1 168.510557 
L 0.083273 167.728295 
L 3.958182 164.930114 
L 7.833091 162.131932 
L 11.708 159.33375 
L 15.582909 156.535568 
L 19.457818 153.737386 
L 23.332727 150.939205 
L 27.207636 148.141023 
L 31.082545 145.342841 
L 34.957455 142.544659 
L 38.832364 139.746477 
L 42.707273 136.948295 
L 46.582182 134.150114 
L 50.457091 131.351932 
L 54.332 128.55375 
L 58.206909 125.755568 
L 62.081818 122.957386 
L 65.956727 120.159205 
L 69.831636 117.361023 
L 73.706545 114.562841 
L 77.581455 111.764659 
L 81.456364 108.966477 
L 85.331273 106.168295 
L 89.206182 103.370114 
L 93.081091 100.571932 
L 96.956 97.77375 
L 100.830909 94.975568 
L 104.705818 92.177386 
L 108.580727 89.379205 
L 112.455636 86.581023 
L 116.330545 83.782841 
L 120.205455 80.984659 
L 124.080364 78.186477 
L 127.955273 75.388295 
L 131.830182 72.590114 
L 135.705091 69.791932 
L 139.58 66.99375 
L 143.454909 64.195568 
L 147.329818 61.397386 
L 151.204727 58.599205 
L 155.079636 55.801023 
L 158.954545 53.002841 
L 162.829455 50.204659 
L 166.704364 47.406477 
L 170.579273 44.608295 
L 174.454182 41.810114 
L 178.329091 39.011932 
L 182.204 36.21375 
L 186.078909 33.415568 
L 189.953818 30.617386 
L 193.828727 27.819205 
L 197.703636 25.021023 
L 201.578545 22.222841 
L 205.453455 19.424659 
L 209.328364 16.626477 
L 213.203273 13.828295 
L 217.078182 11.030114 
L 220.953091 8.231932 
L 224.828 5.43375 
L 228.702909 2.635568 
L 232.577818 -0.162614 
L 233.737427 -1 
" clip-path="url(#pa5678ff893)" style="fill: none; stroke-dasharray: 3.7,1.6; stroke-dashoffset: 0; stroke: #fe817d"/>
   </g>
   <g id="line2d_17">
    <path d="M 13.258476 184.01625 
L 15.582909 182.161023 
L 19.457818 179.068295 
L 23.332727 175.975568 
L 27.207636 172.882841 
L 31.082545 169.790114 
L 34.957455 166.697386 
L 38.832364 163.604659 
L 42.707273 160.511932 
L 46.582182 157.419205 
L 50.457091 154.326477 
L 54.332 151.23375 
L 58.206909 148.141023 
L 62.081818 145.048295 
L 65.956727 141.955568 
L 69.831636 138.862841 
L 73.706545 135.770114 
L 77.581455 132.677386 
L 81.456364 129.584659 
L 85.331273 126.491932 
L 89.206182 123.399205 
L 93.081091 120.306477 
L 96.956 117.21375 
L 100.830909 114.121023 
L 104.705818 111.028295 
L 108.580727 107.935568 
L 112.455636 104.842841 
L 116.330545 101.750114 
L 120.205455 98.657386 
L 124.080364 95.564659 
L 127.955273 92.471932 
L 131.830182 89.379205 
L 135.705091 86.286477 
L 139.58 83.19375 
L 143.454909 80.101023 
L 147.329818 77.008295 
L 151.204727 73.915568 
L 155.079636 70.822841 
L 158.954545 67.730114 
L 162.829455 64.637386 
L 166.704364 61.544659 
L 170.579273 58.451932 
L 174.454182 55.359205 
L 178.329091 52.266477 
L 182.204 49.17375 
L 186.078909 46.081023 
L 189.953818 42.988295 
L 193.828727 39.895568 
L 197.703636 36.802841 
L 201.578545 33.710114 
L 205.453455 30.617386 
L 209.328364 27.524659 
L 213.203273 24.431932 
L 217.078182 21.339205 
L 220.953091 18.246477 
L 224.828 15.15375 
L 228.702909 12.061023 
L 232.577818 8.968295 
L 236.452727 5.875568 
L 237.528 5.017348 
" clip-path="url(#pa5678ff893)" style="fill: none; stroke-dasharray: 3.7,1.6; stroke-dashoffset: 0; stroke: #fe817d"/>
   </g>
   <g id="line2d_18">
    <path d="M -1 155.067568 
L 0.083273 154.326477 
L 3.958182 151.675568 
L 7.833091 149.024659 
L 11.708 146.37375 
L 15.582909 143.722841 
L 19.457818 141.071932 
L 23.332727 138.421023 
L 27.207636 135.770114 
L 31.082545 133.119205 
L 34.957455 130.468295 
L 38.832364 127.817386 
L 42.707273 125.166477 
L 46.582182 122.515568 
L 50.457091 119.864659 
L 54.332 117.21375 
L 58.206909 114.562841 
L 62.081818 111.911932 
L 65.956727 109.261023 
L 69.831636 106.610114 
L 73.706545 103.959205 
L 77.581455 101.308295 
L 81.456364 98.657386 
L 85.331273 96.006477 
L 89.206182 93.355568 
L 93.081091 90.704659 
L 96.956 88.05375 
L 100.830909 85.402841 
L 104.705818 82.751932 
L 108.580727 80.101023 
L 112.455636 77.450114 
L 116.330545 74.799205 
L 120.205455 72.148295 
L 124.080364 69.497386 
L 127.955273 66.846477 
L 131.830182 64.195568 
L 135.705091 61.544659 
L 139.58 58.89375 
L 143.454909 56.242841 
L 147.329818 53.591932 
L 151.204727 50.941023 
L 155.079636 48.290114 
L 158.954545 45.639205 
L 162.829455 42.988295 
L 166.704364 40.337386 
L 170.579273 37.686477 
L 174.454182 35.035568 
L 178.329091 32.384659 
L 182.204 29.73375 
L 186.078909 27.082841 
L 189.953818 24.431932 
L 193.828727 21.781023 
L 197.703636 19.130114 
L 201.578545 16.479205 
L 205.453455 13.828295 
L 209.328364 11.177386 
L 213.203273 8.526477 
L 217.078182 5.875568 
L 220.953091 3.224659 
L 224.828 0.57375 
L 227.128395 -1 
" clip-path="url(#pa5678ff893)" style="fill: none; stroke: #fe817d; stroke-width: 1.5; stroke-linecap: square"/>
   </g>
   <g id="line2d_19">
    <path d="M 28.687636 184.01625 
L 31.082545 182.01375 
L 34.957455 178.77375 
L 38.832364 175.53375 
L 42.707273 172.29375 
L 46.582182 169.05375 
L 50.457091 165.81375 
L 54.332 162.57375 
L 58.206909 159.33375 
L 62.081818 156.09375 
L 65.956727 152.85375 
L 69.831636 149.61375 
L 73.706545 146.37375 
L 77.581455 143.13375 
L 81.456364 139.89375 
L 85.331273 136.65375 
L 89.206182 133.41375 
L 93.081091 130.17375 
L 96.956 126.93375 
L 100.830909 123.69375 
L 104.705818 120.45375 
L 108.580727 117.21375 
L 112.455636 113.97375 
L 116.330545 110.73375 
L 120.205455 107.49375 
L 124.080364 104.25375 
L 127.955273 101.01375 
L 131.830182 97.77375 
L 135.705091 94.53375 
L 139.58 91.29375 
L 143.454909 88.05375 
L 147.329818 84.81375 
L 151.204727 81.57375 
L 155.079636 78.33375 
L 158.954545 75.09375 
L 162.829455 71.85375 
L 166.704364 68.61375 
L 170.579273 65.37375 
L 174.454182 62.13375 
L 178.329091 58.89375 
L 182.204 55.65375 
L 186.078909 52.41375 
L 189.953818 49.17375 
L 193.828727 45.93375 
L 197.703636 42.69375 
L 201.578545 39.45375 
L 205.453455 36.21375 
L 209.328364 32.97375 
L 213.203273 29.73375 
L 217.078182 26.49375 
L 220.953091 23.25375 
L 224.828 20.01375 
L 228.702909 16.77375 
L 232.577818 13.53375 
L 236.452727 10.29375 
L 237.528 9.394662 
" clip-path="url(#pa5678ff893)" style="fill: none; stroke: #fe817d; stroke-width: 1.5; stroke-linecap: square"/>
   </g>
   <g id="patch_3">
    <path d="M 33.02 156.09375 
L 33.02 10.29375 
" style="fill: none; stroke: #000000; stroke-linejoin: miter; stroke-linecap: square"/>
   </g>
   <g id="patch_4">
    <path d="M 224.828 156.09375 
L 224.828 10.29375 
" style="fill: none; stroke: #000000; stroke-linejoin: miter; stroke-linecap: square"/>
   </g>
   <g id="patch_5">
    <path d="M 33.02 156.09375 
L 224.828 156.09375 
" style="fill: none; stroke: #000000; stroke-linejoin: miter; stroke-linecap: square"/>
   </g>
   <g id="patch_6">
    <path d="M 33.02 10.29375 
L 224.828 10.29375 
" style="fill: none; stroke: #000000; stroke-linejoin: miter; stroke-linecap: square"/>
   </g>
   <g id="text_17">
    <!-- RMSE=0.214 -->
    <g transform="translate(144.908 131.79375) scale(0.09 -0.09)">
     <defs>
      <path id="SimHei-52" d="M 3000 125 
L 2400 125 
L 1500 1975 
L 850 1975 
L 850 125 
L 275 125 
L 275 4400 
L 1525 4400 
Q 2125 4400 2500 4112 
Q 2875 3825 2875 3175 
Q 2875 2675 2625 2400 
Q 2375 2125 2050 2050 
L 3000 125 
z
M 2300 3175 
Q 2300 3525 2087 3725 
Q 1875 3925 1400 3925 
L 850 3925 
L 850 2450 
L 1550 2450 
Q 1850 2450 2075 2612 
Q 2300 2775 2300 3175 
z
" transform="scale(0.015625)"/>
      <path id="SimHei-4d" d="M 2925 125 
L 2425 125 
L 2425 3175 
L 2375 3175 
L 1775 125 
L 1375 125 
L 775 3175 
L 725 3175 
L 725 125 
L 225 125 
L 225 4400 
L 1000 4400 
L 1550 1575 
L 1600 1575 
L 2150 4400 
L 2925 4400 
L 2925 125 
z
" transform="scale(0.015625)"/>
      <path id="SimHei-53" d="M 2900 1325 
Q 2900 750 2537 412 
Q 2175 75 1550 75 
Q 925 75 575 425 
Q 225 775 225 1300 
L 225 1475 
L 800 1475 
L 800 1325 
Q 800 950 1025 750 
Q 1250 550 1550 550 
Q 1950 550 2137 762 
Q 2325 975 2325 1275 
Q 2325 1525 2100 1737 
Q 1875 1950 1450 2125 
Q 850 2350 587 2625 
Q 325 2900 325 3275 
Q 325 3800 687 4125 
Q 1050 4450 1550 4450 
Q 2200 4450 2487 4062 
Q 2775 3675 2775 3225 
L 2200 3225 
Q 2225 3500 2050 3725 
Q 1875 3950 1550 3950 
Q 1250 3950 1075 3787 
Q 900 3625 900 3350 
Q 900 3125 1037 2962 
Q 1175 2800 1750 2575 
Q 2300 2350 2600 2037 
Q 2900 1725 2900 1325 
z
" transform="scale(0.015625)"/>
      <path id="SimHei-45" d="M 2900 125 
L 350 125 
L 350 4400 
L 2775 4400 
L 2775 3925 
L 925 3925 
L 925 2600 
L 2625 2600 
L 2625 2125 
L 925 2125 
L 925 600 
L 2900 600 
L 2900 125 
z
" transform="scale(0.015625)"/>
      <path id="SimHei-3d" d="M 2975 2900 
L 125 2900 
L 125 3300 
L 2975 3300 
L 2975 2900 
z
M 2975 1375 
L 125 1375 
L 125 1775 
L 2975 1775 
L 2975 1375 
z
" transform="scale(0.015625)"/>
      <path id="SimHei-2e" d="M 1075 125 
L 500 125 
L 500 675 
L 1075 675 
L 1075 125 
z
" transform="scale(0.015625)"/>
      <path id="SimHei-32" d="M 300 250 
Q 325 625 650 925 
Q 975 1225 1475 1862 
Q 1975 2500 2125 2850 
Q 2275 3200 2237 3450 
Q 2200 3700 2000 3862 
Q 1800 4025 1537 4000 
Q 1275 3975 1037 3800 
Q 800 3625 675 3275 
L 200 3350 
Q 400 3925 712 4187 
Q 1025 4450 1450 4475 
Q 1700 4500 1900 4462 
Q 2100 4425 2312 4287 
Q 2525 4150 2662 3875 
Q 2800 3600 2762 3212 
Q 2725 2825 2375 2287 
Q 2025 1750 1025 600 
L 2825 600 
L 2825 150 
L 300 150 
L 300 250 
z
" transform="scale(0.015625)"/>
     </defs>
     <use xlink:href="#SimHei-52"/>
     <use xlink:href="#SimHei-4d" x="50"/>
     <use xlink:href="#SimHei-53" x="100"/>
     <use xlink:href="#SimHei-45" x="150"/>
     <use xlink:href="#SimHei-3d" x="200"/>
     <use xlink:href="#SimHei-30" x="250"/>
     <use xlink:href="#SimHei-2e" x="300"/>
     <use xlink:href="#SimHei-32" x="350"/>
     <use xlink:href="#SimHei-31" x="400"/>
     <use xlink:href="#SimHei-34" x="450"/>
    </g>
   </g>
   <g id="text_18">
    <!-- R$^2=$0.918 -->
    <g transform="translate(144.908 119.64375) scale(0.09 -0.09)">
     <defs>
      <path id="DejaVuSans-32" d="M 1228 531 
L 3431 531 
L 3431 0 
L 469 0 
L 469 531 
Q 828 903 1448 1529 
Q 2069 2156 2228 2338 
Q 2531 2678 2651 2914 
Q 2772 3150 2772 3378 
Q 2772 3750 2511 3984 
Q 2250 4219 1831 4219 
Q 1534 4219 1204 4116 
Q 875 4013 500 3803 
L 500 4441 
Q 881 4594 1212 4672 
Q 1544 4750 1819 4750 
Q 2544 4750 2975 4387 
Q 3406 4025 3406 3419 
Q 3406 3131 3298 2873 
Q 3191 2616 2906 2266 
Q 2828 2175 2409 1742 
Q 1991 1309 1228 531 
z
" transform="scale(0.015625)"/>
      <path id="DejaVuSans-3d" d="M 678 2906 
L 4684 2906 
L 4684 2381 
L 678 2381 
L 678 2906 
z
M 678 1631 
L 4684 1631 
L 4684 1100 
L 678 1100 
L 678 1631 
z
" transform="scale(0.015625)"/>
     </defs>
     <use xlink:href="#SimHei-52" transform="translate(0 0.765625)"/>
     <use xlink:href="#DejaVuSans-32" transform="translate(50.957031 39.046875) scale(0.7)"/>
     <use xlink:href="#DejaVuSans-3d" transform="translate(117.709961 0.765625)"/>
     <use xlink:href="#SimHei-30" transform="translate(220.981445 0.765625)"/>
     <use xlink:href="#SimHei-2e" transform="translate(270.981445 0.765625)"/>
     <use xlink:href="#SimHei-39" transform="translate(320.981445 0.765625)"/>
     <use xlink:href="#SimHei-31" transform="translate(370.981445 0.765625)"/>
     <use xlink:href="#SimHei-38" transform="translate(420.981445 0.765625)"/>
    </g>
   </g>
   <g id="text_19">
    <!-- 随机森林 -->
    <g transform="translate(144.908 107.49375) scale(0.09 -0.09)">
     <defs>
      <path id="SimHei-968f" d="M 4050 4425 
Q 4325 5025 4350 5300 
Q 4675 5150 4950 5075 
Q 4825 4925 4525 4400 
L 5350 4400 
Q 5725 4400 6075 4425 
L 6075 4000 
Q 5775 4025 5350 4025 
L 4400 4025 
Q 4200 3675 3975 3350 
L 5800 3350 
Q 5775 3000 5775 2525 
L 5775 850 
Q 5775 600 5612 525 
Q 5450 450 5050 375 
Q 5025 600 4900 850 
Q 5350 775 5300 1250 
L 4175 1250 
L 4175 425 
L 3700 425 
Q 3725 775 3725 1200 
L 3725 3000 
L 3550 2725 
Q 3350 2900 3125 3000 
Q 3525 3350 3875 4025 
Q 3675 4025 3325 4000 
L 3325 4450 
Q 3675 4425 4050 4425 
z
M 2225 4900 
Q 2125 4725 1575 2925 
Q 1875 2525 2037 2150 
Q 2200 1775 2187 1462 
Q 2175 1150 1900 937 
Q 1625 725 1325 650 
Q 1275 875 1075 1200 
Q 1500 1200 1612 1350 
Q 1725 1500 1625 1900 
Q 1525 2300 1075 2875 
Q 1475 4025 1575 4550 
L 875 4550 
L 875 -625 
L 400 -625 
Q 425 0 425 675 
L 425 3800 
Q 425 4425 400 4900 
L 2225 4900 
z
M 3100 2825 
Q 3075 2475 3075 2050 
L 3075 525 
Q 3125 300 3750 175 
Q 4375 50 4787 37 
Q 5200 25 5500 37 
Q 5800 50 6175 125 
Q 6025 -150 6025 -425 
Q 5350 -425 4837 -387 
Q 4325 -350 3912 -262 
Q 3500 -175 3200 -25 
Q 2900 125 2737 -12 
Q 2575 -150 2300 -475 
Q 2150 -275 1950 -125 
Q 2275 175 2625 400 
L 2625 2425 
L 2175 2425 
L 2175 2850 
Q 2425 2825 3100 2825 
z
M 5300 1600 
L 5300 2125 
L 4175 2125 
L 4175 1600 
L 5300 1600 
z
M 5300 2475 
L 5300 3000 
L 4175 3000 
L 4175 2475 
L 5300 2475 
z
M 2750 4575 
Q 2975 4000 3125 3425 
Q 2875 3400 2625 3275 
Q 2500 3900 2275 4425 
Q 2525 4475 2750 4575 
z
" transform="scale(0.015625)"/>
      <path id="SimHei-673a" d="M 5100 4775 
Q 5075 4075 5075 3575 
L 5075 325 
Q 5075 0 5225 -25 
Q 5375 -50 5475 -37 
Q 5575 -25 5612 137 
Q 5650 300 5650 625 
Q 5875 500 6175 425 
Q 6075 -100 5975 -275 
Q 5875 -450 5650 -450 
L 5125 -450 
Q 4825 -450 4687 -312 
Q 4550 -175 4575 250 
L 4575 4350 
L 3625 4350 
Q 3625 2925 3587 2137 
Q 3550 1350 3362 712 
Q 3175 75 2625 -575 
Q 2500 -425 2175 -175 
Q 2525 100 2737 500 
Q 2950 900 3025 1325 
Q 3100 1750 3125 2225 
Q 3150 2700 3150 3425 
Q 3150 4175 3125 4775 
L 5100 4775 
z
M 2150 2725 
Q 2550 2175 2750 1875 
Q 2575 1725 2325 1550 
Q 2175 1875 1800 2425 
L 1800 600 
Q 1800 100 1825 -525 
L 1275 -525 
Q 1300 100 1300 600 
L 1300 2200 
Q 1175 1825 1025 1487 
Q 875 1150 600 725 
Q 375 975 200 1125 
Q 400 1350 725 2000 
Q 1050 2650 1225 3450 
L 1075 3450 
Q 725 3450 375 3400 
L 375 3875 
Q 725 3850 1050 3850 
L 1300 3850 
L 1300 4350 
Q 1300 4750 1275 5100 
L 1850 5100 
Q 1800 4850 1800 4350 
L 1800 3850 
L 2075 3850 
Q 2350 3850 2700 3875 
L 2700 3425 
Q 2150 3450 1800 3450 
L 1800 2450 
Q 1950 2575 2150 2725 
z
" transform="scale(0.015625)"/>
      <path id="SimHei-68ee" d="M 2950 4475 
Q 2950 4875 2925 5100 
L 3425 5100 
Q 3400 4850 3400 4475 
L 4850 4475 
Q 5225 4475 5625 4500 
L 5625 4050 
Q 5225 4075 4875 4075 
L 4000 4075 
Q 4225 3675 4750 3437 
Q 5275 3200 5875 3175 
Q 5650 2925 5575 2700 
Q 4675 2875 4162 3275 
Q 3650 3675 3500 4075 
L 3400 4075 
Q 3400 2950 3425 2500 
L 2925 2500 
Q 2950 2875 2950 4075 
L 2925 4075 
Q 2600 3600 2150 3250 
Q 1700 2900 925 2550 
Q 850 2775 575 2975 
Q 1075 3100 1562 3375 
Q 2050 3650 2375 4075 
Q 1150 4075 800 4050 
L 800 4500 
Q 1200 4475 1725 4475 
L 2950 4475 
z
M 4100 2075 
Q 4100 2325 4075 2625 
L 4550 2625 
Q 4525 2350 4525 2075 
Q 5500 2075 5925 2100 
L 5925 1675 
Q 5475 1700 4850 1700 
Q 5000 1300 5337 887 
Q 5675 475 6125 250 
Q 5875 75 5725 -125 
Q 5475 75 5150 425 
Q 4825 775 4525 1400 
L 4525 425 
Q 4525 0 4550 -500 
L 4075 -500 
Q 4100 -75 4100 400 
L 4100 1300 
Q 3900 775 3625 387 
Q 3350 0 3100 -275 
Q 2900 -75 2600 25 
Q 3125 400 3387 837 
Q 3650 1275 3775 1700 
Q 3550 1700 3200 1675 
L 3200 2100 
Q 3525 2075 4100 2075 
z
M 1700 2075 
Q 1700 2325 1675 2600 
L 2150 2600 
Q 2125 2300 2125 2075 
Q 2525 2075 2875 2100 
L 2875 1675 
Q 2500 1700 2125 1700 
L 2125 400 
Q 2125 -25 2150 -525 
L 1675 -525 
Q 1700 -125 1700 400 
L 1700 1250 
Q 1450 775 1237 487 
Q 1025 200 750 -100 
Q 650 125 325 225 
Q 675 500 950 875 
Q 1225 1250 1400 1700 
Q 850 1700 425 1675 
L 425 2100 
Q 850 2075 1700 2075 
z
M 2525 1450 
Q 2850 1175 3125 900 
Q 2925 750 2750 600 
Q 2600 800 2200 1175 
Q 2375 1275 2525 1450 
z
" transform="scale(0.015625)"/>
      <path id="SimHei-6797" d="M 2925 3850 
Q 3200 3825 3500 3825 
L 3950 3825 
L 3950 4575 
Q 3950 4925 3900 5200 
L 4475 5200 
Q 4450 5050 4450 4550 
L 4450 3825 
L 5200 3825 
Q 5575 3825 5925 3875 
L 5925 3400 
Q 5600 3425 5250 3425 
L 4525 3425 
Q 4700 2850 4925 2475 
Q 5150 2100 5387 1825 
Q 5625 1550 5850 1400 
Q 6075 1250 6200 1175 
Q 6075 1025 5975 912 
Q 5875 800 5775 650 
Q 5125 1250 4825 1750 
Q 4525 2225 4450 2525 
L 4450 325 
Q 4450 -50 4475 -500 
L 3925 -500 
Q 3950 50 3950 325 
L 3950 2525 
Q 3600 1700 3300 1200 
Q 3000 700 2775 475 
Q 2550 650 2275 825 
Q 2600 1125 2862 1500 
Q 3125 1875 3350 2287 
Q 3575 2700 3825 3425 
L 3525 3425 
Q 3225 3425 2925 3400 
L 2925 3850 
z
M 1250 4450 
Q 1250 4825 1225 5175 
L 1800 5175 
Q 1775 4875 1775 4450 
L 1775 3825 
Q 2150 3825 2600 3850 
L 2600 3400 
Q 2150 3425 1775 3425 
L 1775 2575 
Q 1950 2700 2175 2800 
Q 2325 2575 2675 1950 
Q 2475 1850 2200 1675 
Q 2075 2000 1775 2500 
L 1775 550 
Q 1775 25 1800 -500 
L 1225 -500 
Q 1250 50 1250 550 
L 1250 2250 
Q 1025 1575 600 875 
Q 525 1000 250 1425 
Q 500 1725 737 2162 
Q 975 2600 1200 3425 
Q 775 3425 375 3400 
L 375 3850 
Q 875 3825 1250 3825 
L 1250 4450 
z
" transform="scale(0.015625)"/>
     </defs>
     <use xlink:href="#SimHei-968f"/>
     <use xlink:href="#SimHei-673a" x="100"/>
     <use xlink:href="#SimHei-68ee" x="200"/>
     <use xlink:href="#SimHei-6797" x="300"/>
    </g>
   </g>
   <g id="legend_1">
    <g id="patch_7">
     <path d="M 38.27 58.817578 
L 130.67 58.817578 
Q 132.17 58.817578 132.17 57.317578 
L 132.17 15.54375 
Q 132.17 14.04375 130.67 14.04375 
L 38.27 14.04375 
Q 36.77 14.04375 36.77 15.54375 
L 36.77 57.317578 
Q 36.77 58.817578 38.27 58.817578 
z
" style="fill: #ffffff; opacity: 0.8; stroke: #cccccc; stroke-linejoin: miter"/>
    </g>
    <g id="PathCollection_2">
     <g>
      <use xlink:href="#m90072811ea" x="47.27" y="20.443359" style="fill: #385989; stroke: #385989"/>
     </g>
    </g>
    <g id="text_20">
     <!-- Test set sample -->
     <g transform="translate(60.77 22.412109) scale(0.075 -0.075)">
      <defs>
       <path id="ArialMT-54" d="M 1659 0 
L 1659 4041 
L 150 4041 
L 150 4581 
L 3781 4581 
L 3781 4041 
L 2266 4041 
L 2266 0 
L 1659 0 
z
" transform="scale(0.015625)"/>
       <path id="ArialMT-65" d="M 2694 1069 
L 3275 997 
Q 3138 488 2766 206 
Q 2394 -75 1816 -75 
Q 1088 -75 661 373 
Q 234 822 234 1631 
Q 234 2469 665 2931 
Q 1097 3394 1784 3394 
Q 2450 3394 2872 2941 
Q 3294 2488 3294 1666 
Q 3294 1616 3291 1516 
L 816 1516 
Q 847 969 1125 678 
Q 1403 388 1819 388 
Q 2128 388 2347 550 
Q 2566 713 2694 1069 
z
M 847 1978 
L 2700 1978 
Q 2663 2397 2488 2606 
Q 2219 2931 1791 2931 
Q 1403 2931 1139 2672 
Q 875 2413 847 1978 
z
" transform="scale(0.015625)"/>
       <path id="ArialMT-73" d="M 197 991 
L 753 1078 
Q 800 744 1014 566 
Q 1228 388 1613 388 
Q 2000 388 2187 545 
Q 2375 703 2375 916 
Q 2375 1106 2209 1216 
Q 2094 1291 1634 1406 
Q 1016 1563 777 1677 
Q 538 1791 414 1992 
Q 291 2194 291 2438 
Q 291 2659 392 2848 
Q 494 3038 669 3163 
Q 800 3259 1026 3326 
Q 1253 3394 1513 3394 
Q 1903 3394 2198 3281 
Q 2494 3169 2634 2976 
Q 2775 2784 2828 2463 
L 2278 2388 
Q 2241 2644 2061 2787 
Q 1881 2931 1553 2931 
Q 1166 2931 1000 2803 
Q 834 2675 834 2503 
Q 834 2394 903 2306 
Q 972 2216 1119 2156 
Q 1203 2125 1616 2013 
Q 2213 1853 2448 1751 
Q 2684 1650 2818 1456 
Q 2953 1263 2953 975 
Q 2953 694 2789 445 
Q 2625 197 2315 61 
Q 2006 -75 1616 -75 
Q 969 -75 630 194 
Q 291 463 197 991 
z
" transform="scale(0.015625)"/>
       <path id="ArialMT-74" d="M 1650 503 
L 1731 6 
Q 1494 -44 1306 -44 
Q 1000 -44 831 53 
Q 663 150 594 308 
Q 525 466 525 972 
L 525 2881 
L 113 2881 
L 113 3319 
L 525 3319 
L 525 4141 
L 1084 4478 
L 1084 3319 
L 1650 3319 
L 1650 2881 
L 1084 2881 
L 1084 941 
Q 1084 700 1114 631 
Q 1144 563 1211 522 
Q 1278 481 1403 481 
Q 1497 481 1650 503 
z
" transform="scale(0.015625)"/>
       <path id="ArialMT-20" transform="scale(0.015625)"/>
       <path id="ArialMT-61" d="M 2588 409 
Q 2275 144 1986 34 
Q 1697 -75 1366 -75 
Q 819 -75 525 192 
Q 231 459 231 875 
Q 231 1119 342 1320 
Q 453 1522 633 1644 
Q 813 1766 1038 1828 
Q 1203 1872 1538 1913 
Q 2219 1994 2541 2106 
Q 2544 2222 2544 2253 
Q 2544 2597 2384 2738 
Q 2169 2928 1744 2928 
Q 1347 2928 1158 2789 
Q 969 2650 878 2297 
L 328 2372 
Q 403 2725 575 2942 
Q 747 3159 1072 3276 
Q 1397 3394 1825 3394 
Q 2250 3394 2515 3294 
Q 2781 3194 2906 3042 
Q 3031 2891 3081 2659 
Q 3109 2516 3109 2141 
L 3109 1391 
Q 3109 606 3145 398 
Q 3181 191 3288 0 
L 2700 0 
Q 2613 175 2588 409 
z
M 2541 1666 
Q 2234 1541 1622 1453 
Q 1275 1403 1131 1340 
Q 988 1278 909 1158 
Q 831 1038 831 891 
Q 831 666 1001 516 
Q 1172 366 1500 366 
Q 1825 366 2078 508 
Q 2331 650 2450 897 
Q 2541 1088 2541 1459 
L 2541 1666 
z
" transform="scale(0.015625)"/>
       <path id="ArialMT-6d" d="M 422 0 
L 422 3319 
L 925 3319 
L 925 2853 
Q 1081 3097 1340 3245 
Q 1600 3394 1931 3394 
Q 2300 3394 2536 3241 
Q 2772 3088 2869 2813 
Q 3263 3394 3894 3394 
Q 4388 3394 4653 3120 
Q 4919 2847 4919 2278 
L 4919 0 
L 4359 0 
L 4359 2091 
Q 4359 2428 4304 2576 
Q 4250 2725 4106 2815 
Q 3963 2906 3769 2906 
Q 3419 2906 3187 2673 
Q 2956 2441 2956 1928 
L 2956 0 
L 2394 0 
L 2394 2156 
Q 2394 2531 2256 2718 
Q 2119 2906 1806 2906 
Q 1569 2906 1367 2781 
Q 1166 2656 1075 2415 
Q 984 2175 984 1722 
L 984 0 
L 422 0 
z
" transform="scale(0.015625)"/>
       <path id="ArialMT-70" d="M 422 -1272 
L 422 3319 
L 934 3319 
L 934 2888 
Q 1116 3141 1344 3267 
Q 1572 3394 1897 3394 
Q 2322 3394 2647 3175 
Q 2972 2956 3137 2557 
Q 3303 2159 3303 1684 
Q 3303 1175 3120 767 
Q 2938 359 2589 142 
Q 2241 -75 1856 -75 
Q 1575 -75 1351 44 
Q 1128 163 984 344 
L 984 -1272 
L 422 -1272 
z
M 931 1641 
Q 931 1000 1190 694 
Q 1450 388 1819 388 
Q 2194 388 2461 705 
Q 2728 1022 2728 1688 
Q 2728 2322 2467 2637 
Q 2206 2953 1844 2953 
Q 1484 2953 1207 2617 
Q 931 2281 931 1641 
z
" transform="scale(0.015625)"/>
       <path id="ArialMT-6c" d="M 409 0 
L 409 4581 
L 972 4581 
L 972 0 
L 409 0 
z
" transform="scale(0.015625)"/>
      </defs>
      <use xlink:href="#ArialMT-54"/>
      <use xlink:href="#ArialMT-65" x="49.958984"/>
      <use xlink:href="#ArialMT-73" x="105.574219"/>
      <use xlink:href="#ArialMT-74" x="155.574219"/>
      <use xlink:href="#ArialMT-20" x="183.357422"/>
      <use xlink:href="#ArialMT-73" x="211.140625"/>
      <use xlink:href="#ArialMT-65" x="261.140625"/>
      <use xlink:href="#ArialMT-74" x="316.755859"/>
      <use xlink:href="#ArialMT-20" x="344.539062"/>
      <use xlink:href="#ArialMT-73" x="372.322266"/>
      <use xlink:href="#ArialMT-61" x="422.322266"/>
      <use xlink:href="#ArialMT-6d" x="477.9375"/>
      <use xlink:href="#ArialMT-70" x="561.238281"/>
      <use xlink:href="#ArialMT-6c" x="616.853516"/>
      <use xlink:href="#ArialMT-65" x="639.070312"/>
     </g>
    </g>
    <g id="line2d_20">
     <path d="M 39.77 30.396094 
L 47.27 30.396094 
L 54.77 30.396094 
" style="fill: none; stroke-dasharray: 6.4,1.6,1,1.6; stroke-dashoffset: 0; stroke: #fe817d"/>
    </g>
    <g id="text_21">
     <!-- Target=Predicted -->
     <g transform="translate(60.77 33.021094) scale(0.075 -0.075)">
      <defs>
       <path id="ArialMT-72" d="M 416 0 
L 416 3319 
L 922 3319 
L 922 2816 
Q 1116 3169 1280 3281 
Q 1444 3394 1641 3394 
Q 1925 3394 2219 3213 
L 2025 2691 
Q 1819 2813 1613 2813 
Q 1428 2813 1281 2702 
Q 1134 2591 1072 2394 
Q 978 2094 978 1738 
L 978 0 
L 416 0 
z
" transform="scale(0.015625)"/>
       <path id="ArialMT-67" d="M 319 -275 
L 866 -356 
Q 900 -609 1056 -725 
Q 1266 -881 1628 -881 
Q 2019 -881 2231 -725 
Q 2444 -569 2519 -288 
Q 2563 -116 2559 434 
Q 2191 0 1641 0 
Q 956 0 581 494 
Q 206 988 206 1678 
Q 206 2153 378 2554 
Q 550 2956 876 3175 
Q 1203 3394 1644 3394 
Q 2231 3394 2613 2919 
L 2613 3319 
L 3131 3319 
L 3131 450 
Q 3131 -325 2973 -648 
Q 2816 -972 2473 -1159 
Q 2131 -1347 1631 -1347 
Q 1038 -1347 672 -1080 
Q 306 -813 319 -275 
z
M 784 1719 
Q 784 1066 1043 766 
Q 1303 466 1694 466 
Q 2081 466 2343 764 
Q 2606 1063 2606 1700 
Q 2606 2309 2336 2618 
Q 2066 2928 1684 2928 
Q 1309 2928 1046 2623 
Q 784 2319 784 1719 
z
" transform="scale(0.015625)"/>
       <path id="ArialMT-3d" d="M 3381 2694 
L 356 2694 
L 356 3219 
L 3381 3219 
L 3381 2694 
z
M 3381 1303 
L 356 1303 
L 356 1828 
L 3381 1828 
L 3381 1303 
z
" transform="scale(0.015625)"/>
       <path id="ArialMT-50" d="M 494 0 
L 494 4581 
L 2222 4581 
Q 2678 4581 2919 4538 
Q 3256 4481 3484 4323 
Q 3713 4166 3852 3881 
Q 3991 3597 3991 3256 
Q 3991 2672 3619 2267 
Q 3247 1863 2275 1863 
L 1100 1863 
L 1100 0 
L 494 0 
z
M 1100 2403 
L 2284 2403 
Q 2872 2403 3119 2622 
Q 3366 2841 3366 3238 
Q 3366 3525 3220 3729 
Q 3075 3934 2838 4000 
Q 2684 4041 2272 4041 
L 1100 4041 
L 1100 2403 
z
" transform="scale(0.015625)"/>
       <path id="ArialMT-64" d="M 2575 0 
L 2575 419 
Q 2259 -75 1647 -75 
Q 1250 -75 917 144 
Q 584 363 401 755 
Q 219 1147 219 1656 
Q 219 2153 384 2558 
Q 550 2963 881 3178 
Q 1213 3394 1622 3394 
Q 1922 3394 2156 3267 
Q 2391 3141 2538 2938 
L 2538 4581 
L 3097 4581 
L 3097 0 
L 2575 0 
z
M 797 1656 
Q 797 1019 1065 703 
Q 1334 388 1700 388 
Q 2069 388 2326 689 
Q 2584 991 2584 1609 
Q 2584 2291 2321 2609 
Q 2059 2928 1675 2928 
Q 1300 2928 1048 2622 
Q 797 2316 797 1656 
z
" transform="scale(0.015625)"/>
       <path id="ArialMT-69" d="M 425 3934 
L 425 4581 
L 988 4581 
L 988 3934 
L 425 3934 
z
M 425 0 
L 425 3319 
L 988 3319 
L 988 0 
L 425 0 
z
" transform="scale(0.015625)"/>
       <path id="ArialMT-63" d="M 2588 1216 
L 3141 1144 
Q 3050 572 2676 248 
Q 2303 -75 1759 -75 
Q 1078 -75 664 370 
Q 250 816 250 1647 
Q 250 2184 428 2587 
Q 606 2991 970 3192 
Q 1334 3394 1763 3394 
Q 2303 3394 2647 3120 
Q 2991 2847 3088 2344 
L 2541 2259 
Q 2463 2594 2264 2762 
Q 2066 2931 1784 2931 
Q 1359 2931 1093 2626 
Q 828 2322 828 1663 
Q 828 994 1084 691 
Q 1341 388 1753 388 
Q 2084 388 2306 591 
Q 2528 794 2588 1216 
z
" transform="scale(0.015625)"/>
      </defs>
      <use xlink:href="#ArialMT-54"/>
      <use xlink:href="#ArialMT-61" x="49.958984"/>
      <use xlink:href="#ArialMT-72" x="105.574219"/>
      <use xlink:href="#ArialMT-67" x="138.875"/>
      <use xlink:href="#ArialMT-65" x="194.490234"/>
      <use xlink:href="#ArialMT-74" x="250.105469"/>
      <use xlink:href="#ArialMT-3d" x="277.888672"/>
      <use xlink:href="#ArialMT-50" x="336.287109"/>
      <use xlink:href="#ArialMT-72" x="402.986328"/>
      <use xlink:href="#ArialMT-65" x="436.287109"/>
      <use xlink:href="#ArialMT-64" x="491.902344"/>
      <use xlink:href="#ArialMT-69" x="547.517578"/>
      <use xlink:href="#ArialMT-63" x="569.734375"/>
      <use xlink:href="#ArialMT-74" x="619.734375"/>
      <use xlink:href="#ArialMT-65" x="647.517578"/>
      <use xlink:href="#ArialMT-64" x="703.132812"/>
     </g>
    </g>
    <g id="line2d_21">
     <path d="M 39.77 41.092969 
L 47.27 41.092969 
L 54.77 41.092969 
" style="fill: none; stroke-dasharray: 3.7,1.6; stroke-dashoffset: 0; stroke: #fe817d"/>
    </g>
    <g id="text_22">
     <!-- $\pm$5% Relative error -->
     <g transform="translate(60.77 43.717969) scale(0.075 -0.075)">
      <defs>
       <path id="DejaVuSans-b1" d="M 2944 4013 
L 2944 2803 
L 4684 2803 
L 4684 2272 
L 2944 2272 
L 2944 1063 
L 2419 1063 
L 2419 2272 
L 678 2272 
L 678 2803 
L 2419 2803 
L 2419 4013 
L 2944 4013 
z
M 678 531 
L 4684 531 
L 4684 0 
L 678 0 
L 678 531 
z
" transform="scale(0.015625)"/>
       <path id="ArialMT-35" d="M 266 1200 
L 856 1250 
Q 922 819 1161 601 
Q 1400 384 1738 384 
Q 2144 384 2425 690 
Q 2706 997 2706 1503 
Q 2706 1984 2436 2262 
Q 2166 2541 1728 2541 
Q 1456 2541 1237 2417 
Q 1019 2294 894 2097 
L 366 2166 
L 809 4519 
L 3088 4519 
L 3088 3981 
L 1259 3981 
L 1013 2750 
Q 1425 3038 1878 3038 
Q 2478 3038 2890 2622 
Q 3303 2206 3303 1553 
Q 3303 931 2941 478 
Q 2500 -78 1738 -78 
Q 1113 -78 717 272 
Q 322 622 266 1200 
z
" transform="scale(0.015625)"/>
       <path id="ArialMT-25" d="M 372 3481 
Q 372 3972 619 4315 
Q 866 4659 1334 4659 
Q 1766 4659 2048 4351 
Q 2331 4044 2331 3447 
Q 2331 2866 2045 2552 
Q 1759 2238 1341 2238 
Q 925 2238 648 2547 
Q 372 2856 372 3481 
z
M 1350 4272 
Q 1141 4272 1002 4090 
Q 863 3909 863 3425 
Q 863 2984 1003 2804 
Q 1144 2625 1350 2625 
Q 1563 2625 1702 2806 
Q 1841 2988 1841 3469 
Q 1841 3913 1700 4092 
Q 1559 4272 1350 4272 
z
M 1353 -169 
L 3859 4659 
L 4316 4659 
L 1819 -169 
L 1353 -169 
z
M 3334 1075 
Q 3334 1569 3581 1911 
Q 3828 2253 4300 2253 
Q 4731 2253 5014 1945 
Q 5297 1638 5297 1041 
Q 5297 459 5011 145 
Q 4725 -169 4303 -169 
Q 3888 -169 3611 142 
Q 3334 453 3334 1075 
z
M 4316 1866 
Q 4103 1866 3964 1684 
Q 3825 1503 3825 1019 
Q 3825 581 3965 400 
Q 4106 219 4313 219 
Q 4528 219 4667 400 
Q 4806 581 4806 1063 
Q 4806 1506 4665 1686 
Q 4525 1866 4316 1866 
z
" transform="scale(0.015625)"/>
       <path id="ArialMT-52" d="M 503 0 
L 503 4581 
L 2534 4581 
Q 3147 4581 3465 4457 
Q 3784 4334 3975 4021 
Q 4166 3709 4166 3331 
Q 4166 2844 3850 2509 
Q 3534 2175 2875 2084 
Q 3116 1969 3241 1856 
Q 3506 1613 3744 1247 
L 4541 0 
L 3778 0 
L 3172 953 
Q 2906 1366 2734 1584 
Q 2563 1803 2427 1890 
Q 2291 1978 2150 2013 
Q 2047 2034 1813 2034 
L 1109 2034 
L 1109 0 
L 503 0 
z
M 1109 2559 
L 2413 2559 
Q 2828 2559 3062 2645 
Q 3297 2731 3419 2920 
Q 3541 3109 3541 3331 
Q 3541 3656 3305 3865 
Q 3069 4075 2559 4075 
L 1109 4075 
L 1109 2559 
z
" transform="scale(0.015625)"/>
       <path id="ArialMT-76" d="M 1344 0 
L 81 3319 
L 675 3319 
L 1388 1331 
Q 1503 1009 1600 663 
Q 1675 925 1809 1294 
L 2547 3319 
L 3125 3319 
L 1869 0 
L 1344 0 
z
" transform="scale(0.015625)"/>
       <path id="ArialMT-6f" d="M 213 1659 
Q 213 2581 725 3025 
Q 1153 3394 1769 3394 
Q 2453 3394 2887 2945 
Q 3322 2497 3322 1706 
Q 3322 1066 3130 698 
Q 2938 331 2570 128 
Q 2203 -75 1769 -75 
Q 1072 -75 642 372 
Q 213 819 213 1659 
z
M 791 1659 
Q 791 1022 1069 705 
Q 1347 388 1769 388 
Q 2188 388 2466 706 
Q 2744 1025 2744 1678 
Q 2744 2294 2464 2611 
Q 2184 2928 1769 2928 
Q 1347 2928 1069 2612 
Q 791 2297 791 1659 
z
" transform="scale(0.015625)"/>
      </defs>
      <use xlink:href="#DejaVuSans-b1" transform="translate(0 0.203125)"/>
      <use xlink:href="#ArialMT-35" transform="translate(83.789062 0.203125)"/>
      <use xlink:href="#ArialMT-25" transform="translate(139.404297 0.203125)"/>
      <use xlink:href="#ArialMT-20" transform="translate(228.320312 0.203125)"/>
      <use xlink:href="#ArialMT-52" transform="translate(256.103516 0.203125)"/>
      <use xlink:href="#ArialMT-65" transform="translate(328.320312 0.203125)"/>
      <use xlink:href="#ArialMT-6c" transform="translate(383.935547 0.203125)"/>
      <use xlink:href="#ArialMT-61" transform="translate(406.152344 0.203125)"/>
      <use xlink:href="#ArialMT-74" transform="translate(461.767578 0.203125)"/>
      <use xlink:href="#ArialMT-69" transform="translate(489.550781 0.203125)"/>
      <use xlink:href="#ArialMT-76" transform="translate(511.767578 0.203125)"/>
      <use xlink:href="#ArialMT-65" transform="translate(561.767578 0.203125)"/>
      <use xlink:href="#ArialMT-20" transform="translate(617.382812 0.203125)"/>
      <use xlink:href="#ArialMT-65" transform="translate(645.166016 0.203125)"/>
      <use xlink:href="#ArialMT-72" transform="translate(700.78125 0.203125)"/>
      <use xlink:href="#ArialMT-72" transform="translate(734.082031 0.203125)"/>
      <use xlink:href="#ArialMT-6f" transform="translate(767.382812 0.203125)"/>
      <use xlink:href="#ArialMT-72" transform="translate(822.998047 0.203125)"/>
     </g>
    </g>
    <g id="line2d_22">
     <path d="M 39.77 51.701953 
L 47.27 51.701953 
L 54.77 51.701953 
" style="fill: none; stroke: #fe817d; stroke-width: 1.5; stroke-linecap: square"/>
    </g>
    <g id="text_23">
     <!-- $\pm$10% Relative error -->
     <g transform="translate(60.77 54.326953) scale(0.075 -0.075)">
      <defs>
       <path id="ArialMT-31" d="M 2384 0 
L 1822 0 
L 1822 3584 
Q 1619 3391 1289 3197 
Q 959 3003 697 2906 
L 697 3450 
Q 1169 3672 1522 3987 
Q 1875 4303 2022 4600 
L 2384 4600 
L 2384 0 
z
" transform="scale(0.015625)"/>
       <path id="ArialMT-30" d="M 266 2259 
Q 266 3072 433 3567 
Q 600 4063 929 4331 
Q 1259 4600 1759 4600 
Q 2128 4600 2406 4451 
Q 2684 4303 2865 4023 
Q 3047 3744 3150 3342 
Q 3253 2941 3253 2259 
Q 3253 1453 3087 958 
Q 2922 463 2592 192 
Q 2263 -78 1759 -78 
Q 1097 -78 719 397 
Q 266 969 266 2259 
z
M 844 2259 
Q 844 1131 1108 757 
Q 1372 384 1759 384 
Q 2147 384 2411 759 
Q 2675 1134 2675 2259 
Q 2675 3391 2411 3762 
Q 2147 4134 1753 4134 
Q 1366 4134 1134 3806 
Q 844 3388 844 2259 
z
" transform="scale(0.015625)"/>
      </defs>
      <use xlink:href="#DejaVuSans-b1" transform="translate(0 0.203125)"/>
      <use xlink:href="#ArialMT-31" transform="translate(83.789062 0.203125)"/>
      <use xlink:href="#ArialMT-30" transform="translate(139.404297 0.203125)"/>
      <use xlink:href="#ArialMT-25" transform="translate(195.019531 0.203125)"/>
      <use xlink:href="#ArialMT-20" transform="translate(283.935547 0.203125)"/>
      <use xlink:href="#ArialMT-52" transform="translate(311.71875 0.203125)"/>
      <use xlink:href="#ArialMT-65" transform="translate(383.935547 0.203125)"/>
      <use xlink:href="#ArialMT-6c" transform="translate(439.550781 0.203125)"/>
      <use xlink:href="#ArialMT-61" transform="translate(461.767578 0.203125)"/>
      <use xlink:href="#ArialMT-74" transform="translate(517.382812 0.203125)"/>
      <use xlink:href="#ArialMT-69" transform="translate(545.166016 0.203125)"/>
      <use xlink:href="#ArialMT-76" transform="translate(567.382812 0.203125)"/>
      <use xlink:href="#ArialMT-65" transform="translate(617.382812 0.203125)"/>
      <use xlink:href="#ArialMT-20" transform="translate(672.998047 0.203125)"/>
      <use xlink:href="#ArialMT-65" transform="translate(700.78125 0.203125)"/>
      <use xlink:href="#ArialMT-72" transform="translate(756.396484 0.203125)"/>
      <use xlink:href="#ArialMT-72" transform="translate(789.697266 0.203125)"/>
      <use xlink:href="#ArialMT-6f" transform="translate(822.998047 0.203125)"/>
      <use xlink:href="#ArialMT-72" transform="translate(878.613281 0.203125)"/>
     </g>
    </g>
   </g>
  </g>
 </g>
 <defs>
  <clipPath id="pa5678ff893">
   <rect x="33.02" y="10.29375" width="191.808" height="145.8"/>
  </clipPath>
 </defs>
</svg>
